<svg xmlns="http://www.w3.org/2000/svg" data-name="Layer 1" width="1176.606201171875" height="873.978515625"><rect id="backgroundrect" width="100%" height="100%" x="0" y="0" fill="none" stroke="none"/><title>connected world</title><g class="currentLayer" style=""><title>Layer 1</title><path d="M1083.9665796051027,212.45179971984862 C950.4240796051025,26.62165971984863 668.3218896051026,-48.759100280151365 390.88344960510256,32.427769719848634 C244.21007960510255,75.34883971984863 102.78989960510253,161.34756971984862 32.70548960510254,327.8688397198486 C-92.57792039489746,625.5436097198486 170.47041960510253,720.6136797198486 342.47541960510256,750.9136597198486 c83.17231,14.65143 161.50651,39.26261 233.089,72.77077 C704.3477996051025,883.9686197198487 932.3032096051026,937.3867997198487 1104.1966796051026,686.2751597198486 C1228.7852796051025,504.2691197198486 1172.9190796051025,336.2330297198486 1083.9665796051027,212.45179971984862 z" fill="#dadada" id="svg_1" class="selected" fill-opacity="1"/><path d="M309.73196960510256,249.21745971984865 a34.38541,34.38541 0 0 0 -2.24759,-8.60455 a3.89486,3.89486 0 0 0 -1.9801,-2.43877 a4.08011,4.08011 0 0 0 -1.9647400000000002,-0.022000000000000006 l-10.08728,1.5434999999999999 a3.86686,3.86686 0 0 0 -2.30153,0.8942700000000001 c-1.3138200000000002,1.38169 -0.020100000000000003,3.60656 -0.06032000000000001,5.5127500000000005 c-0.04523000000000001,2.14349 -1.9497400000000003,3.88337 -4.015,4.459 a15.17731,15.17731 0 0 1 -6.3796800000000005,-0.07910000000000002 l-14.105,-2.19194 a23.25611,23.25611 0 0 0 10.67057,-7.12071 c1.8561800000000002,-2.1989 2.84369,-6.30419 0.16110000000000002,-7.34549 a6.58539,6.58539 0 0 0 -2.4499,-0.19671000000000005 c-6.39055,0.04969000000000001 -11.41938,-5.286 -17.402,-7.53322 a19.24089,19.24089 0 0 0 -21.65464,6.45538 l7.5139,0.36227000000000004 a3.33516,3.33516 0 0 1 2.00147,0.5337900000000001 c1.6467,1.35295 -0.40057000000000004,3.95167 -0.16859000000000005,6.07024 c0.30140000000000006,2.7524800000000003 3.95606,3.34017 6.711,3.6185 s6.2499,2.51667 4.92472,4.94791 c-13.84664,4.7694 -27.9371,-9.32314 -42.479,-7.58839 c-3.68047,0.43906000000000006 -7.15584,1.8849300000000002 -10.74918,2.79409 c-21.95074,5.55382 -44.64391,-9.26441 -67.06781,-6.12617 a85.16281,85.16281 0 0 0 -14.64041,3.8612200000000003 c-3.05193,1.00208 -6.23529,2.085 -8.4528,4.409 s-3.06148,6.29847 -0.9607300000000001,8.72854 a49.12567,49.12567 0 0 1 -17.21577,-1.63646 a9.645,9.645 0 0 1 4.95868,8.50029 A102.14535,102.14535 0 0 0 74.12407960510254,269.0034497198486 a44.07342,44.07342 0 0 0 5.416,7.21479 l-11.44534,7.353 c3.8667800000000003,0.97425 5.866,6.24693 3.61733,9.54 c4.00941,-1.78367 6.49425,-6.39789 10.78165,-7.33339 c2.80882,-0.6128800000000001 5.66686,0.53616 8.33145,1.6155599999999999 s5.59324,2.12606 8.35166,1.31595 s4.793,-4.38683 3.04022,-6.66564 a142.71908,142.71908 0 0 1 36.25271,-5.66392 a4.54655,4.54655 0 0 1 2.7456,0.52105 c1.5982500000000002,1.10883 1.17774,3.50381 1.09165,5.44712 s1.4285100000000002,4.49732 3.16535,3.62139 c-2.0434,1.77191 -0.29656000000000005,5.10765 1.6638700000000002,6.97094 s4.32331,4.43434 3.12309,6.85811 c-0.31325000000000003,0.6325900000000001 -0.84455,1.13873 -1.14595,1.77705 c-0.8896500000000002,1.88416 0.5228900000000001,4.08076 2.189,5.332 s3.70692,2.12572 4.86428,3.85837 s0.6317800000000001,4.76548 -1.43777,5.00743 l-5.88236,-7.46869 a15.31355,15.31355 0 0 0 -3.97364,7.53022 c6.23775,5.09923 7.176,15.47823 1.9538000000000002,21.613410000000002 c-2.66868,3.13523 -6.46374,5.04033 -9.776,7.48581 s-6.37716,5.92783 -6.36883,10.045 c0.014390000000000002,7.1131 -0.56681,13.72146 2.09864,20.31629 a312.966,312.966 0 0 0 16.99045,35.44742 c1.6808400000000003,3.00616 3.85316,6.30106 7.2582,6.81867 q-6.45495,-15.71421 -11.62147,-31.91738 c2.24339,0.008780000000000003 4.83588,0.18690000000000004 6.151,2.0044 c1.089,1.505 0.8550700000000001,3.55121 1.1934500000000001,5.3778500000000005 a16.65908,16.65908 0 0 0 2.12446,4.99431 L175.42607960510253,434.6253897198486 c1.7035200000000001,3.03448 3.65756,6.29169 6.91332,7.52057 c2.08158,0.78568 4.48987,0.6376700000000002 6.4058,1.7688200000000003 c1.50176,0.8866300000000001 2.51323,2.46048 4.04419,3.29566 c4.32885,2.3614800000000002 10.34856,-2.16748 14.394,0.6520000000000001 c1.1567100000000001,0.80618 1.8925800000000002,2.08691 2.9584,3.00991 c3.7363,3.23562 9.8654,1.07107 14.17856,3.48476 c2.77976,1.55559 4.22039,4.66667 5.70306,7.486 c3.71393,7.0621 9.72327,13.98083 17.68257,14.54317 c2.50017,0.17664000000000002 5.054,-0.29740000000000005 7.4979000000000005,0.25869 s4.84966,2.68894 4.45736,5.16446 c-0.6725500000000001,4.244 1.4243100000000002,8.89112 0.86116,13.151 c-1.02579,7.7595 -12.03211,11.16939 -12.97751,18.93909 c-0.20700000000000002,1.70118 0.11700000000000002,3.45712 -0.28806000000000004,5.1222900000000005 c-0.49646000000000007,2.04085 -2.02916,3.70248 -2.5737900000000002,5.731 c-1.03211,3.84421 1.72207,7.67 4.74769,10.25626 s6.63464,4.8164 8.28878,8.43676 c1.74839,3.82665 0.8895900000000001,8.2885 1.4582,12.457 c1.24134,9.10039 9.10157,15.84677 17.19082,20.19673 c2.46463,1.3253400000000002 5.11094,2.60844 6.70615,4.90762 c2.08209,3.00091 1.87467,6.957 2.56992,10.54272 c1.7027100000000002,8.78155 9.09527,16.01718 9.30517,24.95982 c0.14919000000000002,6.35613 -3.384,12.12238 -5.49458,18.11972 a42.25685,42.25685 0 0 0 3.45065,35.0456 c1.5788600000000002,2.6660000000000004 3.46722,5.17956 4.58411,8.06975 c1.9931,5.15754 1.34639,11.02046 3.18408,16.2354 c2.42959,6.8946000000000005 9.10562,12.58934 8.46666,19.87152 c3.0309,6.29406 9.72369,9.38665 16.45363,11.26 l12.06158,3.3575 c2.3094900000000003,0.6428800000000001 4.72281,1.2908600000000001 7.07448,0.82537 s4.596,-2.41823 4.53529,-4.81476 c-5.91483,-1.33393 -12.01936,-2.75242 -16.89516,-6.35673 s-8.21581,-10.02271 -6.36585,-15.797 c0.8578100000000001,-2.67751 2.68278,-5.76942 0.9477400000000001,-7.98179 c-0.9934299999999999,-1.26672 -2.81,-1.5976700000000001 -3.93051,-2.7534400000000003 c-1.7477500000000001,-1.80265 -1.14729,-4.831 0.10918000000000001,-7.0048 s3.07257,-4.11641 3.57937,-6.57554 a6.8609,6.8609 0 0 0 -3.21584,-7.13792 a17.05434,17.05434 0 0 0 5.97,-3.83059 c1.57,-1.79291 2.29521,-4.557 1.06019,-6.59515 c3.66753,0.46513 7.99742,0.6929300000000002 10.40495,-2.1126 c1.92251,-2.24033 1.79046,-5.589700000000001 1.03082,-8.44244 s-2.04361,-5.62357 -2.08361,-8.57544 a156.26659,156.26659 0 0 0 25.353,-0.8596800000000001 a16.43929,16.43929 0 0 0 -7.70814,-9.65354 c3.81059,-0.6447500000000002 7.28211,-5.20677 8.486,-8.87922 s0.8968600000000001,-7.67268 0.15275000000000002,-11.46513 a6.1519,6.1519 0 0 1 -0.11400000000000002,-3.0037 c0.42911000000000005,-1.36751 1.7724799999999998,-2.202 3.01534,-2.91574 l18.91439,-10.86271 a11.01742,11.01742 0 0 0 3.02461,-2.2329 c1.98167,-2.3277 1.68812,-5.84149 0.6734400000000001,-8.72517 s-2.64,-5.59533 -3.03084,-8.62723 c-1.169,-9.06757 8.53762,-15.57351 11.81344,-24.10911 c1.28556,-3.34968 1.5475599999999998,-6.99072 1.79634,-10.57 c0.2672,-3.84428 0.28706000000000004,-8.30958 -2.66466,-10.78692 c-2.82948,-2.37472 -7.25051,-1.8450000000000002 -10.21125,-4.05388 c-2.71448,-2.02517 -3.6510000000000002,-5.95833 -6.61642,-7.5940900000000005 c-2.6930500000000004,-1.4855 -6.06961,-0.54073 -9.06479,-1.23939 c-5.27364,-1.23013 -8.59236,-7.30815 -13.97824,-7.87093 c-3.03881,-0.31753000000000003 -6.47807,1.16807 -8.96869,-0.6016900000000002 c-2.19461,-1.55942 -2.28256,-4.693770000000001 -2.70031,-7.35339 a20.53588,20.53588 0 0 0 -16.57469,-16.62806 c-3.13319,-0.5024599999999999 -6.54363,-0.31164000000000003 -9.20909,-2.03347 c-2.6990000000000003,-1.7435200000000002 -3.93652,-5.00776 -6.0566,-7.42227 c-3.41691,-3.89143 -8.79842,-5.274 -13.83964,-6.45913 l-20.50551,-4.82056 c-3.64012,-0.8557500000000001 -8.33221,-1.30951 -10.2856,1.87908 a14.73808,14.73808 0 0 0 -1.2167000000000001,3.82666 a11.85046,11.85046 0 0 1 -11.14436,8.38821 a13.17908,13.17908 0 0 0 -7.77154,-6.01327 c-2.07929,-0.57947 -4.30492,-0.6439200000000002 -6.288,-1.49645 a8.83267,8.83267 0 0 1 -3.83257,-12.25263 a10.99469,10.99469 0 0 0 -1.8787900000000002,-13.22509 c-3.48719,-3.13068 -8.53151,-3.88711 -13.20736,-3.57386 c-1.22464,-2.67214 0.8230000000000001,-5.687 3.02956,-7.6288800000000005 s4.886,-3.851 5.36649,-6.75084 c0.7558800000000001,-4.56146 -5.06429,-8.026 -9.48338,-6.66591 s-7.23961,5.65241 -9.10407,9.88349 c-1.06976,2.42763 -1.97922,4.984 -3.66664,7.031 s-4.40481,3.51266 -6.97507,2.8557300000000003 c-3.63876,-0.93 -5.0441,-5.25313 -5.84943,-8.9215 c-1.0805,-4.92177 -2.16729,-9.91182 -1.94089,-14.94571 s1.92341,-10.20254 5.63535,-13.6103 c6.04878,-5.55311 15.328,-5.00874 23.49132,-4.12292 c-1.9286500000000002,-2.173 -1.452,-5.83518 0.61156,-7.88051 a8.95973,8.95973 0 0 1 8.12084,-1.99506 a11.19111,11.19111 0 0 1 6.29121,3.76152 c2.3197900000000002,2.82828 2.97946,6.647 4.73289,9.85732 s5.69616,5.94849 8.92328,4.22617 c2.7873799999999997,-1.48763 3.22979,-5.35275 2.53606,-8.43517 s-2.16714,-6.07975 -1.91585,-9.22926 c0.47950000000000004,-6.00963 6.70912,-9.627 12.20639,-12.102 S280.04007960510256,369.6047397198486 280.9109996051025,363.6392597198486 a10.72992,10.72992 0 0 1 0.6523400000000001,-3.42029 a6.70927,6.70927 0 0 1 2.46136,-2.31466 c16.04394,-10.60287 32.35471,-21.33517 50.69218,-27.12878 c0.9540000000000001,-0.30143000000000003 1.066,0.03357000000000001 2.03827,-0.20258 c1.36074,-0.78645 0.45911,-2.96205 -0.84552,-3.83847 s-3.04843,-1.54853 -3.37942,-3.08495 c-0.24331000000000003,-1.12941 0.42213,-2.23839 0.5950000000000001,-3.38071 c0.42476,-2.807 -2.93323,-5.3986600000000005 -5.541,-4.27645 c-1.473,-1.9507700000000001 1.44164,-4.21747 3.79839,-4.86633 a103.15015,103.15015 0 0 1 21.67038,-3.54 a3.90329,3.90329 0 0 1 2.4658800000000003,0.41943 c1.23093,0.8526600000000001 1.07366,2.80835 0.20129000000000002,4.0254 s-2.22935,1.98119 -3.31646,3.011 a9.05261,9.05261 0 0 0 -2.34812,9.105 c3.826,1.94617 7.98552,3.9496200000000004 12.223,3.2640000000000002 s7.99857,-5.44675 6.00679,-9.24924 c-1.8548,-3.541 -7.42626,-4.33966 -8.384360000000001,-8.22052 c-1.12177,-4.5438 5.31041,-8.585 3.86151,-13.03528 c-0.6346600000000001,-1.94937 -2.5773900000000003,-3.09662 -4.06811,-4.504 a12.22124,12.22124 0 0 1 -2.67445,-13.55158 a15.41851,15.41851 0 0 1 -13.52264,-4.2317 c-3.23448,-3.26425 -5.8149,-8.41353 -10.40792,-8.26747 c-4.21485,0.134 -7.84523,5.0513 -11.78634,3.55111 c-0.96958,-0.36907000000000006 -1.99186,-1.12025 -2.93131,-0.6801200000000002 a2.42225,2.42225 0 0 0 -1.09342,1.815 c-1.00154,4.78839 0.72138,10.24417 -1.8883900000000002,14.38191 c-2.83993,4.50267 -9.4088,5.12692 -12.85167,9.18721 c-1.86891,2.20407 -2.593,5.17405 -4.31085,7.49776 s-5.36393,3.80111 -7.42549,1.77609 a10.23468,10.23468 0 0 0 -2.78041,-12.44508 a27.30929,27.30929 0 0 0 -6.14119,-2.98712 a36.42167,36.42167 0 0 1 -6.86076,-3.82371 a6.75781,6.75781 0 0 1 -2.51864,-2.6949400000000003 a6.14136,6.14136 0 0 1 0.17224000000000003,-4.26168 a17.42557,17.42557 0 0 1 13.867140000000001,-11.49368 c2.74488,-0.37343000000000004 5.93955,-0.24185 7.75607,-2.33327 c0.96116,-1.10661 1.4654800000000001,-2.77969 2.86062,-3.22913 a4.21943,4.21943 0 0 1 2.64107,0.32524000000000003 l10.24533,3.60618 a7.19076,7.19076 0 0 0 3.64975,0.6036400000000002 a2.4744800000000002,2.4744800000000002 0 0 0 2.13965,-2.60046 c-0.3273500000000001,-1.70141 -2.94535,-2.5178700000000003 -2.7071300000000003,-4.234 a2.82667,2.82667 0 0 1 0.8574700000000001,-1.4413500000000001 a36.6289,36.6289 0 0 1 29.0513,-11.47224 c1.2931300000000001,2.1238 -0.7520000000000001,4.63875 -2.45369,6.45178 s-3.0691800000000002,5.05247 -1.01125,6.44805 a5.64254,5.64254 0 0 0 2.72791,0.6143500000000001 a23.81858,23.81858 0 0 1 7.2608,2.20231 q5.31051,2.31106 10.41719,5.05725 c-0.30072000000000004,-2.24471 -0.5877300000000001,-4.60949 0.26309,-6.70836 s3.26893,-3.74515 5.38105,-2.92776 c2.03552,0.7877500000000001 3.07945,3.483 5.24807,3.72993 c2.89281,0.32939000000000007 4.03409,-3.94424 2.82574,-6.59315 s-3.60044,-4.86693 -3.80011,-7.77157 c-0.13471000000000002,-1.9595799999999999 0.6110000000000001,-4.38989 -0.9542900000000001,-5.57648 a4.26049,4.26049 0 0 0 -1.8468200000000001,-0.64758 l-39.08387,-7.19215 c-2.3208800000000003,-0.42709 -5.67415,-0.09975000000000003 -5.77707,2.25786 c-0.057460000000000004,1.316 1.1180700000000001,2.6179200000000002 0.5974200000000001,3.82788 c-0.5556900000000001,1.2914 -2.3812,1.17333 -3.71082,1.63009 c-2.06306,0.7087100000000001 -3.0983,3.15844 -2.90016,5.33082 a14.83392,14.83392 0 0 0 2.448,6.00751 C316.12343960510253,250.47604971984862 312.27414960510254,250.28061971984863 309.73196960510256,249.21745971984865 z" fill="#4f668d" id="svg_2" class="" fill-opacity="1"/><path d="M278.54689960510257,216.04005971984864 a12.65625,12.65625 0 0 0 -13.90248,4.16352 c-0.6435400000000001,0.84733 -1.184,2.0154 -0.6452600000000001,2.93291 c0.77242,1.3153800000000002 2.74054,0.79583 4.19156,0.3253000000000001 a10.54923,10.54923 0 0 1 6.62071,-0.15794000000000005 c1.36251,0.46780000000000005 2.58147,1.29457 3.94993,1.7446900000000003 a3.97776,3.97776 0 0 0 4.0557,-0.5926700000000001 c0.93918,-0.95786 0.9981099999999999,-2.447 0.99977,-3.7885 a3.04683,3.04683 0 0 0 -0.7764,-2.5041599999999997 a3.98083,3.98083 0 0 0 -1.7955299999999998,-0.53108 a6.18453,6.18453 0 0 1 -3.61949,-2.11485 " fill="#4f668d" id="svg_3" class="" fill-opacity="1"/><path d="M292.6397196051025,212.11625971984864 a3.21956,3.21956 0 0 0 -3.11178,4.53438 a13.04966,13.04966 0 0 0 5.203,0.33925000000000005 a4.44715,4.44715 0 0 0 3.63666,-3.33425 a8.37214,8.37214 0 0 1 -5.92789,-1.13214 " fill="#4f668d" id="svg_4" class="" fill-opacity="1"/><path d="M339.92284960510256,205.56315971984864 a59.85328,59.85328 0 0 0 -13.342,4.5323 a10.02439,10.02439 0 0 1 6.40246,10.06844 a5.24308,5.24308 0 0 0 0.06075000000000001,2.48936 c0.49000000000000005,1.1879300000000002 1.90992,1.6336700000000002 3.15823,1.93858 a20.82257,20.82257 0 0 0 6.927,0.8841500000000001 a7.05639,7.05639 0 0 0 5.73376,-3.50382 a24.97233,24.97233 0 0 1 1.19237,-2.81861 c2.99219,-4.55705 11.8812,0.9531000000000001 15.09379,-3.45134 c1.13168,-1.55153 1.02817,-3.887 2.50344,-5.11644 a5.62408,5.62408 0 0 1 2.57353,-0.98213 a180.73105,180.73105 0 0 1 19.54841,-2.78411 c3.10923,-0.27057000000000003 7.16188,-1.387 7.18775,-4.50784 a54.14874,54.14874 0 0 0 -34.54122,4.64674 c-3.85042,1.92855 -8.943,5.98531 -12.65192,3.4285200000000002 c-1.3887,-0.95731 -1.3199400000000001,-3.5351 -3.23126,-4.61157 C344.5838396051025,204.67482971984865 341.99716960510256,205.12244971984865 339.92284960510256,205.56315971984864 z" fill="#4f668d" id="svg_5" class="" fill-opacity="1"/><path d="M378.22193960510253,212.72519971984863 l5.49742,1.05632 a7.12377,7.12377 0 0 0 -7.41336,7.7201 c5.14811,1.7198000000000002 10.760720000000001,0.04624000000000001 16.18368,0.27485000000000004 s11.73261,4.10232 10.80688,9.45057 c-0.27991000000000005,1.61713 -1.2141,3.23318 -0.72831,4.8008 c0.34049000000000007,1.0987500000000001 1.3095,1.87838 1.8564500000000002,2.89032 c1.13975,2.10869 0.22882000000000002,4.77587 -1.21034,6.692740000000001 s-3.37358,3.44632 -4.63683,5.48342 c-3.14187,5.0665700000000005 -1.35681,11.61664 0.5147900000000001,17.27691 a15.23135,15.23135 0 0 0 2.92877,5.84883 c2.77285,2.94822 7.29158,3.20463 11.33846,3.26369 c2.9454599999999997,0.04300000000000001 6.31961,-0.10253000000000001 8.18228,-2.38464 c2.4318,-2.9794099999999997 0.7313500000000001,-7.6279200000000005 2.3324000000000003,-11.12466 c1.45407,-3.17575 5.15873,-4.53818 8.51521,-5.50446 c6.14911,-1.77024 12.41566,-3.27523 18.229,-5.94915 c7.2187,-3.32032 13.96506,-8.49468 21.89925,-8.92208 c2.22592,-0.11990000000000002 4.507,0.1428 6.651120000000001,-0.46707000000000004 s4.18088,-2.46362 4.01856,-4.68685 c-0.13870000000000002,-1.8995900000000001 -1.7458500000000001,-3.29449 -3.00165,-4.72649 s-2.242,-3.6340000000000003 -1.08784,-5.14908 l20.79655,-3.88442 c-1.47415,-4.01745 -2.62255,-9.30851 0.7648900000000002,-11.92352 c1.22221,-0.94351 2.85865,-1.3206200000000001 3.89928,-2.46127 c1.77363,-1.9441000000000002 0.8817500000000001,-5.293 -1.16563,-6.94635 s-4.81568,-2.03716 -7.43825,-2.255 c-9.11882,-0.7573200000000001 -18.29,-0.25689 -27.42647,0.24392000000000003 q-26.78979,1.46846 -53.57959,2.93691 c-3.59534,0.19707000000000002 -7.74639,-0.10400000000000001 -11.04389,1.12259 c-2.79157,1.03843 -4.77642,2.94458 -7.96917,3.61429 C390.04163960510255,210.25277971984863 383.55541960510254,209.41614971984862 378.22193960510253,212.72519971984863 z" fill="#4f668d" id="svg_6" class="" fill-opacity="1"/><path d="M476.7064796051025,256.17845971984866 a2.21206,2.21206 0 0 0 -1.60017,0.36291000000000007 a2.02023,2.02023 0 0 0 -0.5209,1.23389 a8.1485,8.1485 0 0 0 1.1836,5.83234 a5.71115,5.71115 0 0 0 5.228,2.50649 c2.4753600000000002,-0.31565000000000004 4.29959,-2.42746 6.5753,-3.45795 c3.50743,-1.58681 18.40286,-4.06052 8.099,-9.62727 c-3.55093,-1.9184299999999999 -5.84544,-0.22491000000000005 -8.64415,1.03851 A19.668870000000002,19.668870000000002 0 0 1 476.7064796051025,256.17845971984866 z" fill="#4f668d" id="svg_7" class="" fill-opacity="1"/><path d="M566.9562996051026,209.58259971984864 a5.88312,5.88312 0 0 0 -2.8624400000000003,2.49162 a2.5140000000000002,2.5140000000000002 0 0 0 0.9428400000000001,3.335 a3.7521500000000003,3.7521500000000003 0 0 0 1.40355,0.22264000000000003 l4.89215,0.14615 c2.07829,0.06209000000000001 4.67431,0.50471 5.23278,2.50751 c0.41469,1.4871400000000001 -0.5134599999999999,3.39813 0.6064200000000001,4.46087 a3.1547,3.1547 0 0 0 1.6642100000000002,0.6490900000000002 a11.34113,11.34113 0 0 0 4.92928,0.15908000000000003 c3.55953,-0.95476 1.6891800000000001,-3.12726 2.81027,-5.06171 c1.71533,-2.9598400000000002 1.41838,-1.16811 4.44085,-2.8644600000000002 c2.23211,-1.25277 5.11647,-3.52532 3.25342,-6.71829 C591.0298196051025,203.35759971984862 571.7370796051025,207.19725971984863 566.9562996051026,209.58259971984864 z" fill="#4f668d" id="svg_8" class="" fill-opacity="1"/><path d="M663.5151796051025,206.79106971984862 l-2.84073,0.3790800000000001 c-6.40592,0.8548400000000002 -12.84814,1.7175500000000001 -19.01791,3.64123 a31.65235,31.65235 0 0 0 8.32883,2.04373 a25.58457,25.58457 0 0 1 4.66545,0.6631900000000002 c2.7251000000000003,0.8112400000000001 5.471,2.90612 8.10377,1.8330000000000002 c1.63239,-0.6653800000000001 2.16508,-2.36506 3.5173,-3.26585 c0.9337200000000001,-0.6220000000000001 4.47516,-1.62874 4.87106,-2.25654 C674.3435396051026,204.75354971984862 665.9753996051026,206.46276971984864 663.5151796051025,206.79106971984862 z" fill="#4f668d" id="svg_9" class="" fill-opacity="1"/><path d="M675.9891496051025,219.70206971984862 A53.27668,53.27668 0 0 0 665.5059596051026,227.37925971984862 c-1.33471,1.25468 -2.6980000000000004,2.81516 -2.57694,4.643 c0.16086000000000003,2.42938 2.74871,3.83854 4.99074,4.78778 l9.08123,3.84485 c1.10167,-1.5527600000000001 0.09336000000000003,-3.69619 -1.04522,-5.2221 s-2.4916,-3.29135 -1.9885599999999999,-5.12757 c0.57406,-2.09545 3.129,-2.80951 5.27146,-3.1705 c3.49077,-0.5881700000000001 12.90738,-0.541 11.77592,-6.16669 C689.6813996051026,214.33925971984863 679.4932496051025,217.74343971984862 675.9891496051025,219.70206971984862 z" fill="#4f668d" id="svg_10" class="" fill-opacity="1"/><path d="M674.1629996051025,594.8292597198487 c-0.86453,2.50287 -0.94655,5.45128 0.54891,7.63652 c1.6780700000000002,2.45208 5.0364,3.36612 7.9419,2.7442900000000003 a14.307,14.307 0 0 0 7.3735800000000005,-4.74082 a25.39213,25.39213 0 0 0 4.24116,-6.50393 a50.76722,50.76722 0 0 0 3.14358,-11.50232 l2.8196000000000003,-14.804 c0.6300700000000001,-3.3086 0.6056800000000001,-13.452210000000001 -5.47541,-10.14731 c-1.66126,0.9028400000000001 -5.50764,8.03123 -7.2486,10.05264 c-3.1377800000000002,3.64323 -3.55293,7.17824 -5.20477,11.59189 C680.2339296051025,584.6845897198486 676.0756396051025,589.2920597198487 674.1629996051025,594.8292597198487 z" fill="#4f668d" id="svg_11" class="" fill-opacity="1"/><path d="M995.3450796051026,670.5865797198486 a44.332300000000004,44.332300000000004 0 0 1 -5.77846,-2.75084 a48.70737,48.70737 0 0 0 -2.9293,15.96489 l13.61588,-7.70478 c2.04826,-1.159 4.36977,-2.76948 4.32573,-5.12252 a1.62057,1.62057 0 0 0 -0.7527700000000002,-1.47353 a1.83562,1.83562 0 0 0 -0.95451,-0.11200000000000002 c-2.019,0.16826000000000005 -3.85988,1.16172 -5.76449,1.85256 s-4.13169,1.056 -5.87919,0.030770000000000006 " fill="#4f668d" id="svg_12" class="" fill-opacity="1"/><path d="M1067.1716696051026,675.1608097198487 a29.472,29.472 0 0 0 -4.36645,1.5670000000000002 c-3.12461,1.58981 -5.25021,4.60947 -8.062,6.70342 c-2.69071,2.00378 -5.92975,3.10394 -9.1095,4.17362 c-0.93537,0.82681 -0.5055599999999999,2.492 0.50978,3.21833 a6.31536,6.31536 0 0 0 3.59613,0.80831 c3.30343,0.07292000000000001 6.78371,0.10473000000000002 9.677200000000001,-1.4908100000000002 a30.51837,30.51837 0 0 0 4.55609,-3.61614 c3.38307,-2.82274 7.44579,-4.68517 11.46743,-6.485 a13.162,13.162 0 0 0 3.9969200000000003,-2.38972 c2.52713,-2.4897299999999998 2.7048300000000003,-6.33069 -0.9391200000000001,-7.17807 C1075.5538696051026,669.7869997198486 1069.9751496051026,674.2538597198486 1067.1716696051026,675.1608097198487 z" fill="#4f668d" id="svg_13" class="" fill-opacity="1"/><path d="M1098.9078396051025,654.4303897198487 a11.35853,11.35853 0 0 0 -3.47525,-9.30664 c-0.03724,3.42765 -0.14133,7.07923 -2.06913,9.91362 c-1.37358,2.01952 -3.52722,3.38376 -5.0321,5.30744 s-2.17288,4.97289 -0.40769,6.660880000000001 a6.61488,6.61488 0 0 0 3.9202500000000002,1.35022 c3.51377,0.41362000000000004 7.58086,0.6441500000000001 10.04531,-1.89439 c1.3451300000000002,-1.38557 1.9994299999999998,-3.43772 3.64,-4.4564 a4.42852,4.42852 0 0 0 1.597,-1.14283 c0.6774000000000001,-1.07684 -0.39893000000000006,-2.496 -1.6105,-2.8840000000000003 s-2.5467,-0.2056 -3.7643400000000002,-0.5741 s-2.33475,-1.7376900000000002 -1.71,-2.8458900000000003 " fill="#4f668d" id="svg_14" class="" fill-opacity="1"/><path d="M1042.5029196051025,528.7592597198486 a15.79465,15.79465 0 0 1 -5.63593,0.3323000000000001 c-3.12814,-0.5751000000000001 -5.5628,-2.93262 -8.08828,-4.866 A35.677,35.677 0 0 0 1007.9330796051025,516.9422597198486 c-6.86252,-0.12959 -13.78915,1.73 -20.52914,0.43257000000000007 c0.4403500000000001,2.4492700000000003 2.53621,4.28628 4.77242,5.37816 s4.70424,1.64135 6.95118,2.7110000000000003 a16.59674,16.59674 0 0 1 8.03921,8.36349 c0.7236900000000002,1.6892300000000002 1.179,3.52752 2.27524,5.0025 c2.2406,3.01482 6.48759,3.6768300000000003 10.23573,3.43028 c4.88672,-0.32145000000000007 9.9906,-1.7269 14.53687,0.09374000000000003 c3.47789,1.3927800000000001 5.96707,4.43682 8.871,6.8037600000000005 s6.99409,4.12365 10.32859,2.41582 a17.07456,17.07456 0 0 1 -11.81436,-16.42993 c3.27045,0.30074 12.6902,0.18435 12.18281,-5.37265 C1053.3527096051025,525.0615197198487 1045.3111396051024,528.2509497198487 1042.5029196051025,528.7592597198486 z" fill="#4f668d" id="svg_15" class="" fill-opacity="1"/><path d="M999.7196796051026,567.0763797198487 c0.5806800000000001,-3.18486 3.75678,-5.99733 2.76744,-9.07981 c-0.6842000000000001,-2.13171 -3.15585,-3.18416 -5.39406,-3.23672 s-4.437,0.6141500000000001 -6.67494,0.6769300000000001 a32.52991,32.52991 0 0 0 -4.3708,0.06208000000000001 c-4.4424600000000005,0.7302500000000001 -7.18069,5.3866 -11.367280000000001,7.04224 c-2.5456700000000003,1.00671 -5.40551,0.81426 -8.05306,1.5102099999999998 c-6.00991,1.57979 -9.81258,7.25885 -14.01373,11.83761 a50.01052,50.01052 0 0 1 -25.38405,14.80352 c-3.4171,0.79123 -7.09045,1.29744 -9.80657,3.51674 c-3.59681,2.9388900000000002 -4.48219,7.97714 -5.28242,12.55248 a207.33279,207.33279 0 0 1 -10.093,37.05085 l14.27043,1.822 c2.71314,0.3464100000000001 5.5244599999999995,0.6853900000000002 8.1389,-0.11824000000000003 a23.62759,23.62759 0 0 0 5.35325,-2.85151 a53.44248,53.44248 0 0 1 20.87945,-7.53674 c3.737,-0.51305 7.655,-0.60706 11.16192,0.782 s6.51552,4.5391200000000005 6.80943,8.29966 a8.76685,8.76685 0 0 1 8.76213,2.1310000000000002 a15.23057,15.23057 0 0 1 4.18328,8.35106 c0.37590000000000007,1.95234 0.7520000000000001,4.29163 2.56365,5.11066 c1.478,0.6682000000000001 3.17346,-0.051480000000000005 4.79031,-0.18086000000000002 c5.48649,-0.43900000000000006 10.03922,5.95835 15.43188,4.85672 c5.78353,-1.18148 7.20343,-9.84311 12.84567,-11.57814 c3.24055,-0.99649 7.786,0.21524000000000004 9.33774,-2.79908 c1.36774,-2.6568500000000004 -1.36107,-5.7228200000000005 -1.07966,-8.69778 c0.3465000000000001,-3.66316 4.66743,-5.218 7.99847,-6.781 c11.484,-5.38855 16.93355,-20.845 11.36868,-32.24457 c-3.29717,-6.75422 -9.78474,-12.071 -10.98287,-19.49093 c-0.9218200000000001,-5.70876 1.3285900000000002,-12.36578 -2.31117,-16.85931 c-1.8515700000000002,-2.28588 -4.98653,-3.5476400000000003 -6.08831,-6.2752 c-0.6935300000000001,-1.7169 -0.41478000000000004,-3.66488 -0.788,-5.47855 s-1.95554,-3.7108 -3.74653,-3.2407 c-5.1988900000000005,1.3646 -6.85784,17.42481 -9.6413,21.327 C1007.0734196051026,578.2915897198486 998.3872396051025,574.3844197198487 999.7196796051026,567.0763797198487 z" fill="#4f668d" id="svg_16" class="" fill-opacity="1"/><path d="M903.6254096051025,534.8273597198487 c-1.77663,-0.49816000000000005 -3.71661,-0.9889 -5.4189,-0.277 s-2.6964200000000003,3.21122 -1.33017,4.45137 c10.68847,-0.4163700000000001 21.44238,-0.8298400000000001 32.04,0.6216900000000002 c12.21017,1.67239 24.29409,5.815 36.55784,4.59626 a186.05361,186.05361 0 0 0 -21.326060000000002,-4.94866 l-12.0059,-2.29346 a92.83038,92.83038 0 0 0 -9.74919,-1.50643 C915.5437296051025,534.9054597198486 910.3596796051025,536.7156297198486 903.6254096051025,534.8273597198487 z" fill="#4f668d" id="svg_17" class="" fill-opacity="1"/><path d="M914.3257696051026,497.60143971984866 c-0.8873300000000001,-0.07409000000000002 -1.9863,-0.13792000000000001 -2.44535,0.6250000000000001 c-0.4385800000000001,0.7289300000000001 0.06343000000000001,1.6920000000000002 -0.17241000000000004,2.5094 c-0.32220000000000004,1.11667 -1.78464,1.40194 -2.93688,1.24991 s-2.3984,-0.51613 -3.41924,0.03944 a2.89808,2.89808 0 0 0 -1.1205,3.29188 a8.47457,8.47457 0 0 0 1.97628,3.15037 a32.1849,32.1849 0 0 0 5.12776,5.14334 c3.67354,2.71163 8.65038,4.01837 10.96411,7.95468 a5.2780000000000005,5.2780000000000005 0 0 0 1.46433,1.9708299999999999 c1.11073,0.70357 2.55931,0.16832000000000003 3.7551900000000002,-0.37811000000000006 l4.192,-1.91541 a4.76165,4.76165 0 0 0 1.95967,-1.33278 c0.9577200000000001,-1.29948 0.3694700000000001,-3.1471 -0.4343800000000001,-4.547 s-1.8328200000000001,-2.8486700000000003 -1.66031,-4.45369 c0.30757000000000007,-2.86171 3.98705,-3.95634 5.5,-6.40481 c1.525,-2.468 0.53222,-5.647930000000001 0.7080000000000001,-8.544 c0.20569,-3.38674 2.33378,-7.7921 -1.09013,-10.32252 c-2.90989,-2.15054 -5.6911700000000005,-0.16345000000000004 -7.78036,2.2107900000000003 C924.5078696051025,492.8555297198486 922.4246696051025,498.27775971984863 914.3257696051026,497.60143971984866 z" fill="#4f668d" id="svg_18" class="" fill-opacity="1"/><path d="M939.7713396051025,446.99848971984864 c1.43117,2.74025 4.41473,4.37553 5.97536,7.04417 c1.6915900000000001,2.89256 1.49886,6.62987 3.334,9.43356 c1.8827900000000002,2.87652 5.67178,4.4037 6.72769,7.67544 c1.15278,3.57193 -1.46278,7.9133700000000005 0.6221500000000001,11.03437 a4.63194,4.63194 0 0 0 6.79449,0.62426 a4.98391,4.98391 0 0 0 -0.20571000000000003,-6.95361 c-1.23444,-1.12551 -3.007,-1.6118800000000002 -4.03768,-2.92653 a6.141,6.141 0 0 1 -1.04577,-2.54625 a16.66947,16.66947 0 0 1 0.26222999999999996,-7.98917 a3.55525,3.55525 0 0 0 0.20093000000000003,-2.08971 c-0.464,-1.34873 -2.29026,-1.44442 -3.572,-2.07011 c-2.9111700000000003,-1.42106 -2.84052,-5.52953 -2.3319,-8.7289 c-0.33863000000000004,2.13 -7.92588,-1.49274 -8.72038,-2.69926 c-1.57831,-2.3968100000000003 -0.71931,-7.02026 -1.03176,-9.66886 C939.3355696051026,438.77982971984864 938.0215196051025,443.64804971984864 939.7713396051025,446.99848971984864 z" fill="#4f668d" id="svg_19" class="" fill-opacity="1"/><path d="M863.3345196051025,489.16031971984864 c-1.40039,-1.5676900000000002 -3.50969,-3.20771 -5.38715,-2.26225 c-1.43239,0.72131 -1.82641,2.70317 -1.2650000000000001,4.20545 a9.25683,9.25683 0 0 0 3.05492,3.6420000000000003 c3.91255,3.22681 8.12569,6.13914 11.539,9.89012 c6.10833,6.71269 9.34415,15.77036 15.98724,21.95431 a8.9669,8.9669 0 0 0 5.034,2.7244 c1.93541,0.18005000000000002 4.10878,-1.05881 4.33125,-2.9898 c0.18325000000000002,-1.59064 -0.9256300000000001,-3.01436 -2.00929,-4.19309 c-2.58052,-2.8069100000000002 -5.40559,-5.39057 -7.84193,-8.32349 a6.99405,6.99405 0 0 1 -2.00446,-4.18629 c-0.012360000000000001,-1.5792000000000002 1.42772,-3.23208 2.95776,-2.841 c-1.86083,-0.47563 -3.24087,-3.57576 -5.9719999999999995,-4.15852 c-2.2824400000000002,-0.48700000000000004 -2.8346,0.926 -5.55093,-0.23900000000000002 C871.0271996051025,500.16116971984866 866.9625796051025,493.22182971984864 863.3345196051025,489.16031971984864 z" fill="#3f3d56" id="svg_20"/><path d="M985.0666096051025,336.51378971984866 a42.89929,42.89929 0 0 1 -4.3768,-1.5634700000000001 c-3.84661,-1.15464 -8.93608,1.6727200000000002 -8.42335,5.656000000000001 c0.3406700000000001,2.64657 2.80376,4.4309 4.164,6.72656 c2.01724,3.4043900000000002 1.47946,7.72236 0.41941000000000006,11.5349 a9.01737,9.01737 0 0 1 -1.45541,3.28195 A11.11578,11.11578 0 0 1 971.9475796051025,364.6292597198486 a46.10307,46.10307 0 0 0 -13.4899,11.4604 a3.3029,3.3029 0 0 0 -0.81466,1.5356800000000002 c-0.18345000000000003,1.3448900000000001 1.1684100000000002,2.32458 1.9327100000000002,3.4462800000000002 c1.6977700000000002,2.49171 0.47065,5.8446 0.6384900000000001,8.85506 a2.5036,2.5036 0 0 0 1.05491,2.19658 c1.02329,0.5198 2.23586,-0.36314 2.7904999999999998,-1.368 c1.8406200000000001,-3.33468 0.45407000000000003,-8.6874 3.907,-10.29523 c0.6531600000000001,-0.30414 1.445,-0.4323600000000001 1.8807400000000003,-1.00613 c0.6913100000000001,-0.91021 0.024340000000000004,-2.25793 0.37468000000000007,-3.34588 c0.526,-1.63348 2.76013,-1.70681 4.47468,-1.63436 a25.39755,25.39755 0 0 0 8.72416,-1.16146 a5.80725,5.80725 0 0 0 2.888,-1.67236 c1.0322,-1.2882 0.9407200000000001,-3.11986 0.7344700000000001,-4.75764 a64.49225,64.49225 0 0 0 -7.61951,-23.24965 c3.03314,0.3874600000000001 6.33307,0.7230000000000001 8.95044,-0.8577200000000001 c1.46562,-0.8851500000000001 3.22315,-3.53215 2.49625,-5.33381 C989.7210096051025,334.5919097198486 987.6443996051025,336.99006971984863 985.0666096051025,336.51378971984866 z" fill="#4f668d" id="svg_21" class="" fill-opacity="1"/><path d="M596.2176496051026,381.4203297198486 c0.36300000000000004,1.9468100000000002 0.7198200000000001,3.99671 0.08181000000000001,5.87148 s-2.6450500000000003,3.44124 -4.54026,2.8668 c-1.47084,-0.4458100000000001 -2.32046,-1.9247200000000002 -3.3648800000000003,-3.05224 c-5.80814,-6.27028 -18.91221,-2.64 -22.50023,-10.39738 c-1.46435,-3.166 -0.46919,-6.959 -1.468,-10.30111 a9.16886,9.16886 0 0 0 -9.28527,-6.30783 a19.07985,19.07985 0 0 0 -5.34323,1.5950000000000002 a134.72654,134.72654 0 0 1 -35.4012,8.8543 a29.08667,29.08667 0 0 0 -6.80218,1.23767 c-4.9878,1.80826 -8.39581,6.4324 -10.82115,11.15106 s-4.21585,9.82711 -7.4675,14.01934 c-3.41736,4.4059 -8.20609,7.49115 -12.67306,10.82829 a12.930109999999999,12.930109999999999 0 0 0 -4.18069,4.38171 c-0.96841,1.98814 -0.91378,4.30065 -0.8386100000000001,6.51083 l0.91295,26.84369 c0.11743000000000002,3.45276 0.26488000000000006,7.02894 1.8102200000000002,10.11882 c1.92972,3.8584300000000002 5.741820000000001,6.38553 8.38641,9.794 a19.18331,19.18331 0 0 1 3.9797000000000002,12.25056 c-0.05629000000000001,1.77706 -0.23287,3.87893 1.15113,4.995 a5.06175,5.06175 0 0 0 2.8303599999999998,0.8140000000000001 l36.31165,2.97192 c6.38748,0.52278 13.46629,1.3823400000000001 17.63656,6.24877 c1.9681700000000002,2.29673 3.54923,5.59956 6.56387,5.846 c1.29309,0.10569000000000002 2.5513,-0.42512000000000005 3.84465,-0.52755 c3.26305,-0.25843 6.1296,2.21818 7.93868,4.94608 a21.94345,21.94345 0 0 1 3.52451,14.08047 c-0.29663,3.11179 -1.26143,6.1370000000000005 -1.46943,9.256 c-0.7914599999999999,11.86777 9.26915,22.17857 9.46416,34.07111 c0.11471000000000002,6.99531 -3.20608,13.5313 -6.44367,19.73336 c5.22532,7.91591 0.94656,18.4569 3.02688,27.711 c1.9736500000000001,8.77961 9.294,15.65282 11.11811,24.46471 c0.83506,4.03407 0.8833700000000001,8.99841 4.44062,11.07616 a10.12238,10.12238 0 0 0 5.02475,1.00609 a66.24189,66.24189 0 0 0 30.16507,-6.86742 c4.39862,-2.18276 8.95721,-5.44128 9.7254,-10.29125 c0.6195,-3.91119 -1.36394,-8.28605 0.6546000000000002,-11.6929 c2.379,-4.01531 8.47348,-3.697 11.9738,-6.78414 c5.67861,-5.00824 1.25052,-14.55968 3.55132,-21.77323 c2.06814,-6.4841 9.18735,-9.92886 12.71629,-15.74842 a27.98563,27.98563 0 0 0 2.955,-8.00882 a114.2435,114.2435 0 0 0 3.00656,-20.42635 a122.43639,122.43639 0 0 1 0.92415,-12.51145 c3.8047500000000003,-23.63775 27.17324,-39.466 34.76027,-62.174 c0.72457,-2.16863 1.06484,-5.05722 -0.86443,-6.28433 a5.52524,5.52524 0 0 0 -3.6742,-0.38455000000000006 l-16.73885,2.11033 c-2.0791,0.26212 -4.28291,0.50711 -6.19226,-0.35645000000000004 s-3.27777,-3.279 -2.265,-5.11353 c2.843,-5.14971 -3.00514,-11.65727 -5.60325,-16.93475 a249.89411,249.89411 0 0 0 -24.88458,-40.35668 a4.10206,4.10206 0 0 1 -1.091,-2.36876 l4.75068,0.15818000000000002 c-1.60365,-5.75439 -4.25013,-12.05139 -9.84064,-14.15637 c-3.15023,-1.18615 -6.63887,-0.776 -10,-0.5923400000000001 C616.0670796051025,384.34713971984866 605.7460096051026,382.89361971984863 596.2176496051026,381.4203297198486 z" fill="#4f668d" id="svg_22" class="" fill-opacity="1"/><path d="M625.7020796051025,251.74457971984862 c2.5192,2.6752700000000003 5.34218,5.51171 8.98717,5.978 c6.438,0.8236700000000001 11.06688,-5.83384 14.014,-11.6166 a5.6761800000000004,5.6761800000000004 0 0 0 5.9231,5.25121 a11.69277,11.69277 0 0 0 4.455,-1.7417200000000002 a87.76547,87.76547 0 0 1 41.57892,-10.74849 a4.49028,4.49028 0 0 1 3.4290000000000003,-4.93638 c2.95542,-0.5859200000000001 5.61763,1.96926 7.04331,4.62354 s2.31465,5.73081 4.57974,7.71757 s6.65047,1.90021 7.54516,-0.97683 c0.8589400000000001,-2.76209 -2.01855,-5.11757 -4.40918,-6.746 s-4.91044,-4.64241 -3.30054,-7.04556 c12.21331,-2.70351 24.50238,-5.41726 36.99979,-5.95462 a15.49384,15.49384 0 0 0 6.22815,-1.0729 c1.90589,-0.93527 3.42074,-3.0583 2.90823,-5.11851 a14.10379,14.10379 0 0 1 -14.71819,-5.55156 c17.341,-1.431 35.785,-2.6507300000000003 51.15311,5.50893 c1.8441800000000002,3.959 -7.555,7.25286 -5.0402,10.82367 c0.80205,1.13886 2.40921,1.27242 3.8019,1.29827 c10.67948,0.19828000000000004 21.4206,0.39271000000000006 31.97953,-1.21963 c3.85868,-0.58921 7.7561800000000005,-1.421 11.63024,-0.9431900000000001 c6.45273,0.79581 11.97173,5.10126 18.32,6.505 c2.58381,0.57135 5.48094,0.5907000000000001 7.659,-0.91213 s3.11429,-4.92479 1.3294300000000001,-6.87844 c5.97714,-5.85812 15.89735,-4.40622 23.78266,-1.6016400000000002 s15.35549,7.32743 23.70133,7.95258 c5.98472,0.44829 12.0526,-1.16151 17.96623,-0.1383 c3.71614,0.6430000000000001 7.17469,2.29621 10.80669,3.3119 c6.86932,1.921 14.1359,1.51549 21.26816,1.6079400000000001 a149.0218,149.0218 0 0 1 53.10605,10.55252 a15.78927,15.78927 0 0 1 5.90367,3.488 c1.57334,1.6848500000000002 2.37574,4.303 1.31829,6.35142 l-17.47272,-2.553 c1.6462700000000001,3.24081 5.90527,3.79308 9.364,4.91109 s7.0449,4.93759 4.9663,7.9196 c-3.74756,-1.19324 -7.14361,2.55357 -9.03668,6.00094 s-4.2,7.5760000000000005 -8.12732,7.786 c-3.51681,0.18806000000000003 -7.7700700000000005,-2.80646 -10.06239,-0.13277 a68.62854,68.62854 0 0 1 8.0855,12.92662 c2.26471,4.71812 3.8777500000000003,10.66311 0.81676,14.90809 a3.864,3.864 0 0 1 -2.06585,1.602 c-2.4999000000000002,0.6328600000000001 -4.12418,-2.42539 -5.917,-4.279 c-2.2591200000000002,-2.33583 -5.6756,-2.99743 -8.73495,-4.0929 s-6.28211,-3.25045 -6.52148,-6.49119 c-0.14893000000000003,-2.01631 0.91563,-3.89065 1.6997600000000002,-5.75419 a22.16956,22.16956 0 0 0 1.68445,-9.94358 c-0.17165,-2.73525 -0.9386200000000001,-5.58051 -2.903,-7.49163 s-5.3558900000000005,-2.51739 -7.46472,-0.7670000000000001 c-0.984,0.8167300000000001 -1.77259,2.12315 -3.05043,2.172 c-2.2578300000000002,0.08638000000000001 -3.99138,-3.85 -5.80789,-2.50629 a6.17209,6.17209 0 0 1 -0.8387000000000001,4.12789 c-5.42063,4.71438 -13.748,2.71993 -20.73623,4.3853 a38.92136,38.92136 0 0 0 -9.46064,4.13158 a6.08717,6.08717 0 0 0 -2.70418,2.26983 c-0.87231,1.69516 0.08944000000000002,3.86621 1.6270000000000002,4.99333 a12.91668,12.91668 0 0 0 5.36459,1.83107 c8.5195,1.61352 17.16327,4.11131 23.88942,9.58345 s11.137,14.517900000000001 9.00854,22.92356 l-16.80085,-16.05362 q0.95718,10.11085 1.0863800000000001,20.2774 a9.11644,9.11644 0 0 1 -0.5325599999999999,3.9003 c-1.19773,2.6454500000000003 -4.4439400000000004,3.53567 -7.28856,4.11966 a5.70921,5.70921 0 0 0 -4.38278,7.31476 c1.01068,3.2943100000000003 3.53069,5.86271 5.83813,8.42193 s4.57815,5.46788 4.8802200000000004,8.90047 s-2.28766,7.30166 -5.72523,7.063 c-2.6059400000000004,-0.18094000000000005 -4.5393,-2.51378 -5.65082,-4.87771 s-1.7729,-4.99729 -3.443,-7.00589 c-5.05494,-6.07956 -16.409,-3.4748200000000002 -20.93744,-9.95611 a10.24126,10.24126 0 0 0 -2.11779,9.746 c2.10671,-1.31884 4.99076,-0.09347000000000003 6.57359,1.8228300000000002 s2.32954,4.37313 3.57257,6.52544 c1.67734,2.9043 4.34677,5.479 4.5809,8.82472 a28.84532,28.84532 0 0 0 0.06384000000000001,3.7953 c0.41589000000000004,2.0272 2.12934,3.4828 3.31734,5.17725 c2.76431,3.94272 2.62772,9.359070000000001 0.8460000000000001,13.83256 s-4.98271,8.21152 -8.15324,11.83563 c-5.53774,6.33 -11.18851,12.62289 -17.75369,17.87962 c-1.8733300000000002,1.5 -3.8726000000000003,2.97492 -5.03934,5.072 s-1.22657,5.04064 0.5663400000000001,6.63586 c-1.28287,0.06425000000000002 -3.58355,0.6952200000000002 -4.86642,0.7594700000000001 a113.14129,113.14129 0 0 1 -0.29339000000000004,-15.47719 c-5.06262,-2.43088 -10.51361,4.07913 -9.86032,9.657 s4.68766,10.054 7.5600000000000005,14.87984 c2.10049,3.529 3.66153,7.64391 2.96027,11.69042 s-4.31335,7.77945 -8.40464,7.42256 c-6.50767,-0.56766 -9.22974,-9.91006 -15.674,-10.97926 a2.63321,2.63321 0 0 0 -1.6960000000000002,0.16838000000000003 c-0.9566100000000001,0.525 -1.12289,1.8050000000000002 -1.1766,2.89487 c-0.26365,5.34915 -0.4919200000000001,10.91093 1.5962,15.84273 c3.05478,7.21493 10.94644,13.27462 9.291,20.93272 c-8.91784,-4.14536 -13.55448,-14.14614 -15.65967,-23.7524 s-2.45605,-19.691 -6.22975,-28.77234 c-2.8655,3.6727800000000004 -8.88847,0.6366000000000002 -11.50661,-3.21642 c-2.48213,-3.65287 -4.01035,-7.87845 -6.41852,-11.5805 s-6.09728,-7.017 -10.509,-7.22056 c-4.62546,-0.21346000000000004 -8.637,2.96071 -12.16483,5.95986 c-2.90093,2.4662 -5.87931,5.02945 -7.575,8.43857 c-2.4675700000000003,4.96088 -1.8220900000000002,10.80922 -1.941,16.34863 c-0.12858,5.9886099999999995 -1.39774,12.30709 -5.47933,16.69121 s-11.615310000000001,5.91115 -16.1173,1.95995 c-2.35035,-2.06281 -3.48835,-5.14477 -4.502,-8.1031 A396.68427,396.68427 0 0 1 773.8989996051025,422.25825971984864 c-0.7564700000000001,3.36049 -3.70732,7.69183 -6.52629,5.71231 a5.8442,5.8442 0 0 1 -1.50354,-1.93722 c-5.25831,-8.91217 -14.99614,-14.2578 -24.835,-17.463 s-20.19059,-4.70029 -29.92034,-8.22288 a75.78674,75.78674 0 0 1 -15.52117,-7.7314 a12.20707,12.20707 0 0 0 -0.7460000000000001,12.48676 c2.15828,3.82156 7.04226,6.03267 11.223,4.69689 c2.16045,-0.6902900000000002 3.98494,-2.19009 6.12862,-2.93084 s5.02093,-0.37700000000000006 5.95831,1.68832 c0.8972500000000001,1.97685 -0.45894,4.36829 0.21381000000000003,6.43236 c1.02464,3.14369 5.766,3.38589 7.42395,6.24663 c1.23358,2.12847 0.21858000000000002,4.95491 -1.5427400000000002,6.67243 s-4.1113,2.65952 -6.26134,3.85511 c-6.97621,3.87928 -11.93713,10.50151 -18.03392,15.65374 s-14.69866,8.91387 -21.96463,5.609 c1.7320000000000002,-8.77015 -8.715,-15.20895 -10.636890000000001,-23.93945 c-0.6325900000000001,-2.87357 -0.30466000000000004,-5.92608 -1.20778,-8.726420000000001 c-1.30756,-4.05445 -4.90466,-6.84213 -7.85557,-9.914670000000001 a38.91161,38.91161 0 0 1 -10.67287,-28.310200000000002 c0.15946000000000005,-3.60819 0.82236,-7.27515 0.0003500000000000001,-10.79208 s-3.7338,-6.92093 -7.3420000000000005,-6.76154 c-8.24107,0.36400000000000005 -18.62305,0.977 -22.94678,-6.04816 c-1.54315,-2.50731 -2.21469,-6.17955 0.016420000000000004,-8.10051 c1.5739100000000001,-1.35511 3.89718,-1.22746 5.9641,-1.02413 l18.56832,1.8266 c4.34286,0.42722000000000004 9.03739,0.7797900000000001 12.76409,-1.4906000000000001 s5.34151,-8.297 1.89073,-10.96811 c-2.52136,-1.95171 -7.03872,-1.8458800000000002 -7.77165,-4.949 c-0.61041,-2.58441 2.25017,-5.51674 0.7051900000000001,-7.67656 c-1.10779,-1.5486400000000002 -3.5983400000000003,-1.119 -5.10753,0.041940000000000005 s-2.60418,2.85872 -4.29321,3.7377200000000004 c-2.96291,1.542 -6.50316,0.07446000000000001 -9.690900000000001,-0.9229200000000001 s-7.46125,-1.08208 -9.00743,1.8786300000000002 c-1.7292,3.31119 1.5337900000000002,7.65 -0.18233000000000002,10.96795 c-2.2689,4.38675 -9.95258,1.8894900000000001 -13.13906,5.66279 c-3.65645,4.32983 2.48811,10.78622 1.255,16.31763 a10.1577,10.1577 0 0 1 -10.00739,-0.5622400000000001 a9.72033,9.72033 0 0 1 -4.20064,-9.05054 c0.30523,-2.4883 1.60251,-5.02832 0.7332900000000001,-7.37976 c-0.7027800000000001,-1.90118 -2.6116400000000004,-3.033 -4.38571,-4.01338 l-18.04423,-9.97108 c-1.67528,3.10774 0.44265000000000004,6.9605 3.09144,9.29471 s5.9665099999999995,4.09225 7.70655,7.1642 a9.40377,9.40377 0 0 1 -3.5385400000000002,12.39776 a2.1708,2.1708 0 0 1 -1.78861,0.31200000000000006 a2.4953000000000003,2.4953000000000003 0 0 1 -1.1600000000000001,-1.5598800000000002 c-3.1837400000000002,-8.14738 -7.96377,-16.18036 -15.60589,-20.436420000000002 s-18.62306,-3.3810000000000002 -23.634430000000002,3.78855 c-1.19031,1.7029100000000001 -1.98919,3.644 -3.02611,5.44441 c-5.509,9.56533 -17.31937,14.09487 -28.3537,13.799 a5.6304300000000005,5.6304300000000005 0 0 1 -3.09314,-0.7268400000000002 c-1.78331,-1.23165 -1.703,-3.84517 -1.4300000000000002,-5.99521 l1.15826,-9.12428 c0.23259000000000002,-1.83222 0.5696200000000001,-3.8574200000000003 2.01978,-5.00116 c2.04417,-1.6122400000000001 4.993,-0.5948000000000001 7.59623,-0.6322900000000001 a9.62676,9.62676 0 0 0 8.738,-6.74362 a10.84933,10.84933 0 0 0 -3.02046,-10.78926 c-1.19315,-1.12066 -2.79462,-2.52837 -2.1644200000000002,-4.03911 a3.33909,3.33909 0 0 1 2.3416,-1.57681 c4.67608,-1.35792 9.617,-1.7138400000000003 14.21512,-3.31608 s9.0573,-4.88037 10.14623,-9.6263 c0.33371000000000006,-1.45441 0.48564,-3.21624 1.7920500000000001,-3.93732 a5.3737200000000005,5.3737200000000005 0 0 1 2.071,-0.42313 a10.07754,10.07754 0 0 0 8.64425,-10.50577 c2.20364,-1.53979 5.291,-0.40712000000000004 7.42286,1.23062 s4.014,3.8014799999999997 6.6080000000000005,4.50746 c4.83414,1.3157 9.5058,-2.96444 14.515740000000001,-2.98428 c2.10683,-0.008340000000000002 4.28782,0.7365900000000001 6.26989,0.022310000000000007 c2.00933,-0.72411 3.20926,-2.7243 4.75141,-4.202 s4.24806,-2.379 5.67206,-0.7871400000000001 l-1.21261,-8.982 a17.65786,17.65786 0 0 0 14.37055,-2.5981 l-15.672,-5.29531 a3.40736,3.40736 0 0 1 -1.46551,-0.7835799999999999 c-1.1393900000000001,-1.2269 -0.007680000000000002,-3.1388 0.91883,-4.53347 c2.21645,-3.33642 2.58852,-8.83231 -1.05637,-10.493360000000001 c-2.48789,-1.13378 -5.34358,0.22716000000000003 -7.73152,1.55863 L578.0551896051026,263.6632597198486 c-0.36350000000000005,2.17427 2.29537,3.40652 3.943,4.87108 a6.61107,6.61107 0 0 1 -4.3112,11.55174 a8.23769,8.23769 0 0 1 1.47117,6.984 l-7.69617,0.55351 a3.33426,3.33426 0 0 1 -2.49618,-0.4872 c-0.82313,-0.7310500000000001 -0.7115,-2.01211 -0.90228,-3.09635 c-0.46046000000000004,-2.6169200000000004 -3.0229,-4.45106 -5.63806,-4.92135 s-5.29053,0.13252 -7.88012,0.7277400000000002 a4.703,4.703 0 0 1 -3.38729,-0.07817000000000002 a3.3824,3.3824 0 0 1 -1.3400800000000002,-1.69143 c-1.13531,-2.7527500000000003 -0.07412000000000002,-5.98837 1.7492800000000002,-8.34246 s4.31952,-4.075 6.5613,-6.03479 a38.24257,38.24257 0 0 0 11.37146,-17.63761 c4.23676,-1.7751299999999999 8.623,-4.187 12.85971,-5.96217 a39.35045,39.35045 0 0 1 21.15126,-4.09809 l14.34808,0.27406 c4.248,0.08114000000000002 8.61091,0.18511000000000002 12.53894,1.8046000000000002 s7.37949,5.12222 7.65068,9.36234 a2.8739500000000002,2.8739500000000002 0 0 1 -0.92,2.62744 a3.38952,3.38952 0 0 1 -1.814,0.4088800000000001 C631.3529196051026,250.61825971984865 629.6637596051025,251.6053997198486 625.7020796051025,251.74457971984862 z" fill="#4f668d" id="svg_23" class="" fill-opacity="1"/><path d="M511.33860960510253,296.7119997198486 a4.19848,4.19848 0 0 0 1.14487,-4.22261 a7.85348,7.85348 0 0 0 -8.13191,1.5355400000000001 a13.70974,13.70974 0 0 0 -2.17858,2.8801 c-1.8853900000000001,3.076 -3.553,6.75021 -2.46035,10.18862 a2.89439,2.89439 0 0 0 1.32464,1.81177 a3.48245,3.48245 0 0 0 1.544,0.24185 a51.7614,51.7614 0 0 0 6.21361,-0.38244000000000006 c1.26609,-0.15480000000000002 2.73663,-0.51234 3.22593,-1.6902700000000002 c0.6431900000000002,-1.5484 -0.91358,-3.3007400000000002 -0.45975,-4.91483 a5.36939,5.36939 0 0 1 1.3258200000000002,-1.8986800000000001 a2.51014,2.51014 0 0 0 0.7819,-2.10731 c-0.18315,-0.7573500000000001 -1.34281,-1.187 -1.7602600000000002,-0.529 " fill="#4f668d" id="svg_24" class="" fill-opacity="1"/><path d="M522.1087896051025,282.74865971984866 a17.38476,17.38476 0 0 0 -5.63067,-0.35359 a2.45549,2.45549 0 0 0 -1.1997900000000001,0.27266 a2.00179,2.00179 0 0 0 -0.73936,1.07069 a5.31932,5.31932 0 0 0 3.0969,6.51863 a6.65526,6.65526 0 0 1 1.92043,0.7717400000000001 c1.59252,1.23559 0.5773,3.76114 0.8787700000000002,5.7541 c0.3385200000000001,2.23792 2.50476,4.11641 2.1076,6.34467 c-0.31289000000000006,1.75549 -2.18785,3.14554 -1.8860000000000001,4.9030000000000005 c0.31617000000000006,1.8406700000000003 2.6518900000000003,2.39377 4.51369,2.54117 a5.67657,5.67657 0 0 0 3.1979100000000003,-0.36651000000000006 a4.95168,4.95168 0 0 0 2.01759,-2.9218900000000003 a18.72866,18.72866 0 0 0 0.94353,-7.052 a6.687,6.687 0 0 0 -0.7952,-3.11257 a17.37836,17.37836 0 0 0 -1.85827,-2.12786 C525.1088796051025,290.84168971984866 528.8647496051026,284.6526297198486 522.1087896051025,282.74865971984866 z" fill="#4f668d" id="svg_25" class="" fill-opacity="1"/><path d="M991.1705596051025,607.7841497198486 S717.9691596051025,450.96158971984863 600.3522396051026,480.67533971984864 c0,0 -249.26532,26.82491 -278.15369,85.83971 c0,0 -79.23666,-247.61456 -108.125,-255.86838 " fill="none" stroke="#dadada" stroke-miterlimit="10" stroke-width="2" opacity="0.8" id="svg_26" class="" stroke-opacity="1"/><path d="M322.1985496051025,566.5150497198487 C368.0072496051025,444.35853971984864 780.6981796051025,308.9959097198486 780.6981796051025,308.9959097198486 C722.0960796051025,323.8527797198486 600.3522396051026,480.67533971984864 600.3522396051026,480.67533971984864 S342.8330796051025,293.3136497198486 214.07352960510255,310.64666971984866 c0,0 567.03734,18.57109 777.097,297.13748 " fill="#4f668d" stroke="#dadada" stroke-miterlimit="10" stroke-width="2" opacity="0.8" id="svg_27" class="" stroke-opacity="1" fill-opacity="1"/><circle cx="214.0735321044922" cy="310.64666748046875" r="11.968040466308594" fill="#ff7705" id="svg_28" class="" fill-opacity="1"/><circle cx="322.19854736328125" cy="566.5150756835938" r="11.968040466308594" fill="#ff7705" id="svg_29" class="" fill-opacity="1"/><circle cx="780.6981811523438" cy="308.99591064453125" r="11.968040466308594" fill="#ff7705" id="svg_30" class="" fill-opacity="1"/><circle cx="991.1705322265625" cy="607.7841186523438" r="11.968040466308594" fill="#ff7705" id="svg_31" class="" fill-opacity="1"/><circle cx="600.3522338867188" cy="480.67535400390625" r="11.968040466308594" fill="#ff7705" id="svg_32" class="" fill-opacity="1"/></g></svg>