<svg xmlns="http://www.w3.org/2000/svg" data-name="Layer 1" width="1034" height="823.8433837890625"><rect id="backgroundrect" width="100%" height="100%" x="0" y="0" fill="none" stroke="none"/><title>arrived</title><g class="currentLayer" style=""><title>Layer 1</title><circle cx="775.7034301757812" cy="59.262489318847656" r="33.29323959350586" fill="#2f2e41" id="svg_1"/><path d="M752.17577,79.57640952392578 s-4.81562,60.643 -10.59435,60.643 S809,137.3655895239258 809,137.3655895239258 s-30.81992,-39.953 -15.41,-52.795 S752.17577,79.57640952392578 752.17577,79.57640952392578 z" fill="#9f616a" id="svg_2"/><path d="M752.17577,79.57640952392578 s-4.81562,60.643 -10.59435,60.643 S809,137.3655895239258 809,137.3655895239258 s-30.81992,-39.953 -15.41,-52.795 S752.17577,79.57640952392578 752.17577,79.57640952392578 z" opacity="0.1" id="svg_3"/><path d="M617.5,776.8866095239258 a289.50131,289.50131 0 1 1 204.707,-84.793 A287.604,287.604 0 0 1 617.5,776.8866095239258 zm0,-576 c-157.97656,0 -286.5,128.52344 -286.5,286.5 s128.52344,286.5 286.5,286.5 S904,645.3631695239258 904,487.3866095239258 S775.47656,200.88660952392578 617.5,200.88660952392578 z" fill="#3f3d56" id="svg_4" class=""/><path d="M838.65272,212.2569795239258 L805,221.88660952392576 l47.00737,-2.14408 a41.39094,41.39094 0 0 1 29.02035,9.76445 c8.375,7.25 15.125,18.75 8.625,35.75 c-13,34 -33,66 -33,66 l-13,25 s-27,4 -28,-4 s0,-12 5,-16 s8,-12 8,-16 s-1,-8 2,-10 s4,-5 4,-11 S852,266.88660952392576 852,266.88660952392576 s-36.34728,-12.62963 -52,-2 s-47.34728,57.37037 -47.34728,57.37037 a30.091,30.091 0 0 0 -5.16716,7.34163 a25.94983,25.94983 0 0 1 -6.53689,8.12988 c-2.90809,2.55551 -0.22985000000000003,9.59459 0.7040500000000001,10.52849 c1,1 11,41 11,41 s11,19 -1,20 s-23,2 -24,0 a54.36233,54.36233 0 0 0 -4,-8 c-3,-5 0,-16 0,-16 s-29,-37 -20,-60 s28,-75 28,-75 l29,-12 l53,-19 z" fill="#4f668d" id="svg_5" class="" fill-opacity="1"/><path d="M636.65272,104.25697952392579 l-41,-8 s-10,-34 -22,-30 s8,38 8,38 l57,26 z" fill="#a0616a" id="svg_6"/><path d="M885.65272,138.2569795239258 l18,23 s26,-1 18,13 s-26,6 -27,3 s-30,-29 -30,-29 z" fill="#a0616a" id="svg_7"/><path d="M792,107.88660952392578 l-26,20 l-16,-24 l-124,-7 v41 c30.516,-8.81131 58.60522,-11.54094 81,0 c28.3457,37.74438 34.5827,78.73141 16.65271,123.26291 L870,209.88660952392578 c-43.862610000000004,-16.33332 -64.2243,-40.01193 -58,-72 l51,18 l31,-23 C866.27844,114.2326295239258 825.02161,102.53313952392577 792,107.88660952392578 z" fill="#ff7705" id="svg_8" class="" fill-opacity="1"/><ellipse cx="517" cy="784.8433837890625" rx="517" ry="39" fill="#4f668d" id="svg_9" class="" fill-opacity="1"/><ellipse cx="372.5" cy="783.8433837890625" rx="349.5" ry="26" opacity="0.1" id="svg_10" class=""/><path d="M935.16176,731.9054395239258 c-3.33123,29.19032 14.61428,55.2099 14.61428,55.2099 s23.34649,-21.30729 26.67772,-50.49761 s-14.61427,-55.2099 -14.61427,-55.2099 S938.493,702.7151195239258 935.16176,731.9054395239258 z" fill="#4f668d" id="svg_11" class="" fill-opacity="1"/><path d="M947.8885600000001,730.3991495239258 c12.0073,26.81412 2.77581,57.04389 2.77581,57.04389 s-28.69917,-13.2445 -40.70648,-40.05861 s-2.77582,-57.04389 -2.77582,-57.04389 S935.88125,703.5850395239257 947.8885600000001,730.3991495239258 z" fill="#ff7705" id="svg_12" class="" fill-opacity="1"/><circle cx="618.4157977104187" cy="626.9628829956055" r="112.05567169189453" fill="#f2f2f2" id="svg_13" class=""/><path d="M625.55865,498.4945995239258 l-27.60473,69.01183 l-99.81872,0.80048 l-32.51837,0.26225 l-77.169,0.6211200000000001 l-32.50464,0.26225 l-77.169,0.6211200000000001 l-32.50455,0.26225 l-77.16908,0.6349400000000002 l-32.50455,0.26225 l-52.09012,0.41405000000000003 L74.43020000000001,551.0263995239258 l-13.07088,-26.70763 l-7.21861,-14.78228 L50,498.4945995239258 l24.77526,-78.4665 a37.827,37.827 0 0 1 36.06559,-26.43148 h450.7576 a37.83544,37.83544 0 0 1 35.6239,25.14787 l2.87092,8.08817 z" fill="#ff7705" id="svg_14" class="" fill-opacity="1"/><rect x="50" y="498.4961242675781" width="575.5586547851562" height="144.92529296875" fill="#4f668d" id="svg_15" class="" stroke-opacity="1" stroke="#4f668d" fill-opacity="1"/><rect x="47.142860412597656" y="498.4961242675781" width="102.70148468017578" height="57.96648406982422" opacity="0.1" id="svg_16" class="" fill-opacity="1" fill="#4f668d"/><rect x="617.069580078125" y="299.42755126953125" width="16.978130340576172" height="16.978130340576172" fill="#4f668d" id="svg_17" class="" fill-opacity="1"/><rect x="662.9105224609375" y="662.759521484375" width="16.978130340576172" height="16.978130340576172" fill="#4f668d" id="svg_18" class="" fill-opacity="1"/><rect x="151.3990499973297" y="290.0439929962158" width="368.5231628417969" height="463.7594909667969" fill="#f2f2f2" id="svg_19" class=""/><rect x="230.12086486816406" y="344.59820556640625" width="107.658447265625" height="15.182600021362305" fill="#3f3d56" id="svg_20"/><rect x="173.5311737060547" y="406.7088623046875" width="324.3555908203125" height="6.901179790496826" fill="#e6e6e6" id="svg_21"/><rect x="173.5311737060547" y="428.79266357421875" width="324.3555908203125" height="6.901179790496826" fill="#e6e6e6" id="svg_22"/><rect x="173.5311737060547" y="450.8764343261719" width="324.3555908203125" height="6.901179790496826" fill="#e6e6e6" id="svg_23"/><rect x="173.5311737060547" y="472.960205078125" width="324.3555908203125" height="6.901179790496826" fill="#e6e6e6" id="svg_24"/><rect x="173.5311737060547" y="495.04400634765625" width="324.3555908203125" height="6.901179790496826" fill="#e6e6e6" id="svg_25"/><rect x="173.5311737060547" y="517.1278076171875" width="324.3555908203125" height="6.901179790496826" fill="#e6e6e6" id="svg_26"/><path d="M187.33354000000003,372.20295952392576 a23.464,23.464 0 1 1 23.464,-23.464 A23.49026,23.49026 0 0 1 187.33354000000003,372.20295952392576 zm0,-44.16757 a20.70355,20.70355 0 1 0 20.70355,20.70354 A20.727,20.727 0 0 0 187.33354000000003,328.0353895239258 z" fill="#6c63ff" id="svg_27"/><polygon points="625.5590209960938,762.6782400608063 50,762.6782400608063 50,611.3521292209625 124.53299713134766,641.7622244358063 553.7860107421875,640.3138601779938 625.5590209960938,611.3521292209625 625.5590209960938,762.6782400608063 " fill="#4f668d" id="svg_28" class="" fill-opacity="1"/><rect x="79.67508697509766" y="720.0225830078125" width="107.658447265625" height="15.182600021362305" fill="#f2f2f2" id="svg_29"/><path d="M136.17236,691.5131495239258 a12,12 0 1 1 12,-12 A12.01375,12.01375 0 0 1 136.17236,691.5131495239258 zm0,-22 a10,10 0 1 0 10,10 A10.01114,10.01114 0 0 0 136.17236,669.5131495239258 z" fill="#fff" id="svg_30"/><path d="M840.65272,351.2569795239258 s6,23 8,24 s24,20 9,23 s-26,2 -29,-1 s-2,-6 -7,-7 s-14,-4 -13,-11 s6,-26 9,-28 S840.65272,351.2569795239258 840.65272,351.2569795239258 z" fill="#2f2e41" id="svg_31"/><path d="M753.65272,402.2569795239258 s9,7 4,20 s-12,27 -12,27 s-8,25 -21,21 c-5.28125,-1.625 -7.92188,-6.05567 -9.19577,-10.7442 a25.6964,25.6964 0 0 1 3.63167,-20.90966 l7.5641,-11.34614 l8,-21 z" fill="#2f2e41" id="svg_32"/><path d="M731.70447,499.0724095239258 c17.92578,0 40.1045,-5.93848 61.71778,-27.40235 C846.3324,419.1212395239258 896.599,413.85069952392575 897.10047,413.8038495239258 L896.914,411.81169952392577 c-0.5087900000000001,0.04785000000000001 -51.48829,5.39062 -104.90186,58.43847 c-27.44629,27.25879 -55.77539,28.92871 -74.707,25.52735 a93.3633,93.3633 0 0 1 -34.999,-14.10547 l-1.18165,1.61328 a95.44532,95.44532 0 0 0 35.74805,14.44629 A83.49825,83.49825 0 0 0 731.70447,499.0724095239258 z" fill="#2f2e41" id="svg_33"/><circle cx="870.1527099609375" cy="443.7569885253906" r="12" fill="#ff7705" id="svg_34" class="" fill-opacity="1"/><circle cx="785.1527099609375" cy="499.7569885253906" r="12" fill="#ff7705" id="svg_35" class="" fill-opacity="1"/><circle cx="773.0062255859375" cy="78.11576843261719" r="23.995859146118164" fill="#a0616a" id="svg_36"/><path d="M793.08153,-4.7607422004602995e-7 a18.199,18.199 0 0 1 -10.5008,7.2188 c-7.343,1.96628 -0.06000000000000001,13.00075 -0.06000000000000001,13.00075 s-2.64837,-4.01254 1.17154,-8.26192 S793.65941,4.803049523925779 793.08153,-4.7607422004602995e-7 z" fill="#2f2e41" id="svg_37"/><circle cx="781.219482421875" cy="22.866559982299805" r="9.278440475463867" fill="#2f2e41" id="svg_38"/><path d="M793.06557,30.643419523925786 c-7.56395,-2.861 -20.15862,-4.31161 -26.63825,-3.3200000000000003 l0.8886600000000001,-6.48892 c6.22935,3.2195300000000002 18.76622,4.7325 26.63824,3.3200000000000003 z" fill="#3f3d56" id="svg_39"/><path d="M776.42931,37.966119523925784 s-9.47969,15.76794 -31.52318,21.67067 s-0.18006000000000003,39.028 -0.18006000000000003,39.028 s-7.95034,-12.04555 3.51694,-24.8021 S778.16412,52.38476952392578 776.42931,37.966119523925784 z" fill="#2f2e41" id="svg_40"/><path d="M777.18167,37.00795952392578 s9.10688,21.658 19.10482,23.70558 s9.23961,36.26938 -6.39559,41.40109 c0,0 11.40091,-20.06226 1.6557400000000002,-33.51712 S775.646,44.50640952392578 777.18167,37.00795952392578 z" fill="#2f2e41" id="svg_41"/></g></svg>