<svg xmlns="http://www.w3.org/2000/svg" data-name="Layer 1" width="812.431884765625" height="457.96630859375" style=""><rect id="backgroundrect" width="100%" height="100%" x="0" y="0" fill="none" stroke="none"/><g class="currentLayer" style=""><title>Layer 1</title><path d="M735.6792623828125,67.95131429687501 a328.91521,328.91521 0 0 1 -3.10079,42.26363 c-0.06791000000000001,0.49190000000000006 -0.14190000000000003,0.98375 -0.21009000000000003,1.4756 l-132.41957,-0.7398900000000002 c-0.3888000000000001,-0.48851000000000006 -0.77149,-0.98288 -1.14227,-1.48316 c-1.23628,-1.6556600000000001 -2.395,-3.35838 -3.45865,-5.11983 c-5.11254,-8.486 -7.45311,-18.42132 -5.10763,-25.27614 l0.04200000000000001,-0.10651000000000001 a12.02831,12.02831 0 0 1 2.34764,-4.07918 c5.34764,-6.01959 16.16,-5.01615 25.97205,-0.15736000000000003 c-8.80073,-9.6334 -15.80841,-21.78926 -16.34086,-32.63977 c-0.52208,-10.58352 5.012,-18.14406 11.01435,-24.56922 c0.19695000000000004,-0.21240000000000003 0.3938700000000001,-0.41890000000000005 0.5907800000000001,-0.6253700000000001 c0.09558000000000003,-0.10621000000000001 0.19692000000000004,-0.20650000000000002 0.29221,-0.31272000000000005 c4.68313,-4.89642 10.14284,-9.72328 18.04544,-9.13939 c8.66708,0.64151 18.2763,7.90115 25.01388,16.3606 c6.73762,8.45351 11.21491,18.05682 15.75316,27.42919 c4.54406,9.36646 9.46037,18.97225 16.75215,26.97811 c-9.87623,-12.49214 -17.83907,-26.70542 -20.78054,-40.52887 s-0.35275,-27.1 8.44928,-33.61032 a20.58721,20.58721 0 0 1 9.01766,-3.63858 c0.37972000000000006,-0.06311000000000001 0.7654500000000001,-0.11435000000000001 1.15723,-0.15961000000000003 c8.14822,-0.92711 17.87695,1.891 26.15436,8.62723 c9.11574,7.41707 15.43575,18.41256 18.58032,28.85063 C735.4456523828125,48.18844429687499 735.7807423828125,58.23715429687502 735.6792623828125,67.95131429687501 z" fill="#4f668d" id="svg_1" class="" fill-opacity="1"/><path d="M649.0426523828125,111.22496429687499 l-2.53211,-0.014150000000000001 q-1.206,-0.7540000000000001 -2.4233700000000002,-1.49031 c-0.5024099999999999,-0.31712000000000007 -1.01068,-0.6224400000000001 -1.5192,-0.9337000000000001 q-12.598559999999999,-7.69449 -25.35469,-14.76121 q-12.74452,-7.07256 -25.6172,-13.49343 a1.0612300000000001,1.0612300000000001 0 0 1 -0.6100500000000001,-1.21332 a0.30564,0.30564 0 0 1 0.04220000000000001,-0.08871000000000002 c0.11969000000000003,-0.22470000000000004 0.38722000000000006,-0.31812000000000007 0.77768,-0.12614999999999998 c1.05261,0.5278 2.1113,1.05563 3.16385,1.5953 q12.90783,6.53077 25.70487,13.7134 q12.78823,7.17955 25.43072,14.99291 c0.17721000000000003,0.10774000000000002 0.35467000000000004,0.22142000000000003 0.53188,0.32916000000000006 C647.4409423828125,110.23151429687499 648.2389423828125,110.728244296875 649.0426523828125,111.22496429687499 z" fill="#fff" id="svg_2"/><path d="M681.6910923828125,111.407394296875 l-1.56577,-0.008750000000000003 c-0.35315,-0.49421000000000004 -0.7002200000000001,-0.98842 -1.05336,-1.48266 Q666.6260923828125,92.46315429687502 654.1854423828125,75.01033429687499 q-20.373,-28.573 -40.73382,-57.14587 a1.00843,1.00843 0 0 1 -0.17617,-0.3450000000000001 c-0.11609000000000003,-0.42175 0.19371000000000005,-0.6691100000000001 0.5907800000000001,-0.6253700000000001 a1.18946,1.18946 0 0 1 0.82732,0.52654 q11.42219,16.02372 22.83863,32.03553 q20.26693,28.43007 40.52811,56.85412 c0.85916,1.2028400000000001 1.71828,2.41158 2.57744,3.61443 C680.9908823828125,110.41897429687498 681.3440323828125,110.91321429687503 681.6910923828125,111.407394296875 z" fill="#fff" id="svg_3"/><path d="M716.5737223828125,102.31461429687499 c-0.07990000000000001,2.63879 -0.25456,5.23552 -0.48265,7.80821 q-0.06624000000000002,0.7380000000000001 -0.13277,1.476 l-1.64281,-0.009180000000000002 c0.05025000000000001,-0.49195000000000005 0.10049000000000001,-0.98394 0.14465,-1.476 c0.34714000000000006,-3.71671 0.5934400000000001,-7.47547 0.6268900000000002,-11.33627 a158.14686,158.14686 0 0 0 -3.11339,-31.87786 a198.48188,198.48188 0 0 0 -9.64254,-33.11832 A227.44139,227.44139 0 0 0 686.5544923828126,1.014154296875006 a0.8751700000000001,0.8751700000000001 0 0 1 -0.14500000000000002,-0.5820000000000001 c0.06777000000000002,-0.46818000000000004 0.6911700000000002,-0.6070000000000001 1.15723,-0.15961000000000003 a1.35968,1.35968 0 0 1 0.23551000000000002,0.29785000000000006 q1.13673,1.95463 2.232,3.92092 a227.2816,227.2816 0 0 1 15.10006,32.88192 a197.54231,197.54231 0 0 1 8.98953,33.16806 A156.023,156.023 0 0 1 716.5737223828125,102.31461429687499 z" fill="#fff" id="svg_4" class=""/><path d="M218.6792623828125,201.951314296875 a328.91521,328.91521 0 0 1 -3.10079,42.26363 c-0.06791000000000001,0.49190000000000006 -0.14190000000000003,0.98375 -0.21009000000000003,1.4756 l-132.41957,-0.7398900000000002 c-0.3888000000000001,-0.48851000000000006 -0.77149,-0.98288 -1.14227,-1.48316 c-1.23628,-1.6556600000000001 -2.395,-3.35838 -3.45865,-5.11983 c-5.11254,-8.486 -7.45311,-18.42132 -5.10763,-25.27614 l0.04200000000000001,-0.10651000000000001 a12.02831,12.02831 0 0 1 2.34764,-4.07918 c5.34764,-6.01959 16.16,-5.01615 25.972,-0.15736000000000003 c-8.80073,-9.6334 -15.80841,-21.78926 -16.34086,-32.63977 c-0.52208,-10.58352 5.012,-18.14406 11.01435,-24.56922 c0.19700000000000004,-0.21240000000000003 0.3938700000000001,-0.41890000000000005 0.5907800000000001,-0.6253700000000001 c0.09558000000000003,-0.10621000000000001 0.19692000000000004,-0.20650000000000002 0.29221,-0.31272000000000005 c4.68313,-4.89642 10.14284,-9.72328 18.04544,-9.13939 c8.66708,0.64151 18.2763,7.90115 25.01388,16.3606 c6.73762,8.45351 11.21491,18.05682 15.75316,27.42919 c4.54406,9.36646 9.46037,18.97225 16.75215,26.97811 c-9.87623,-12.49214 -17.83907,-26.70542 -20.78054,-40.52887 s-0.35275,-27.1 8.44928,-33.61032 a20.58721,20.58721 0 0 1 9.01766,-3.63858 c0.37972000000000006,-0.06311000000000001 0.7654500000000001,-0.11435000000000001 1.15723,-0.15961000000000003 c8.14822,-0.92711 17.877,1.891 26.15436,8.62723 c9.11574,7.41707 15.43575,18.41256 18.58032,28.85063 C218.4456523828125,182.188444296875 218.7807423828125,192.23715429687502 218.6792623828125,201.951314296875 z" fill="#4f668d" id="svg_5" class="" fill-opacity="1"/><path d="M132.0426523828125,245.224964296875 l-2.53211,-0.014150000000000001 q-1.206,-0.7540000000000001 -2.4233700000000002,-1.49031 c-0.5024099999999999,-0.31712000000000007 -1.01068,-0.6224400000000001 -1.5192,-0.9337000000000001 q-12.598559999999999,-7.69449 -25.35469,-14.76121 q-12.74453,-7.07256 -25.6172,-13.49343 a1.0612300000000001,1.0612300000000001 0 0 1 -0.6100500000000001,-1.21332 a0.30564,0.30564 0 0 1 0.04220000000000001,-0.08871000000000002 c0.11969000000000003,-0.22470000000000004 0.38722000000000006,-0.31812000000000007 0.77768,-0.12614999999999998 c1.05261,0.5278 2.1113,1.05563 3.16385,1.5953 q12.90783,6.53077 25.70487,13.7134 q12.78823,7.17955 25.43072,14.99291 c0.17721000000000003,0.10774000000000002 0.35467000000000004,0.22142000000000003 0.53188,0.32916000000000006 C130.44094238281252,244.231514296875 131.23894238281252,244.728244296875 132.0426523828125,245.224964296875 z" fill="#fff" id="svg_6"/><path d="M164.69109238281249,245.407394296875 l-1.56577,-0.008750000000000003 c-0.35315,-0.49421000000000004 -0.7002200000000001,-0.98842 -1.05336,-1.48266 Q149.6260823828125,226.46315429687502 137.18544238281248,209.010334296875 q-20.373,-28.573 -40.73382,-57.14587 a1.00843,1.00843 0 0 1 -0.17617,-0.3450000000000001 c-0.11609000000000003,-0.42175 0.19371000000000005,-0.6691100000000001 0.5907800000000001,-0.6253700000000001 a1.18946,1.18946 0 0 1 0.82732,0.52654 q11.42218,16.02372 22.83863,32.03553 q20.26694,28.43007 40.52811,56.85412 c0.85916,1.2028400000000001 1.71828,2.41158 2.57744,3.61443 C163.99088238281252,244.41897429687498 164.3440323828125,244.91321429687503 164.69109238281249,245.407394296875 z" fill="#fff" id="svg_7"/><path d="M199.5737223828125,236.314614296875 c-0.07990000000000001,2.63879 -0.25456,5.23552 -0.48265,7.80821 q-0.06624000000000002,0.7380000000000001 -0.13277,1.476 l-1.64281,-0.009180000000000002 c0.05025000000000001,-0.49195000000000005 0.10049000000000001,-0.98394 0.14465,-1.476 c0.34714000000000006,-3.71671 0.5934400000000001,-7.47547 0.6268900000000002,-11.33627 a158.14686,158.14686 0 0 0 -3.11339,-31.87786 a198.48188,198.48188 0 0 0 -9.64254,-33.11832 A227.44139,227.44139 0 0 0 169.5544923828125,135.014154296875 a0.8751700000000001,0.8751700000000001 0 0 1 -0.14500000000000002,-0.5820000000000001 c0.06777000000000002,-0.46818000000000004 0.6911700000000002,-0.6070000000000001 1.15723,-0.15961000000000003 a1.35968,1.35968 0 0 1 0.23551000000000002,0.29785000000000006 q1.13673,1.95463 2.232,3.92092 a227.2816,227.2816 0 0 1 15.10006,32.88192 a197.54231,197.54231 0 0 1 8.98953,33.16806 A156.023,156.023 0 0 1 199.5737223828125,236.314614296875 z" fill="#fff" id="svg_8"/><path d="M284.1915023828125,302.13721429687496 a7.00628,7.00628 0 0 1 -6.15185,-3.6367200000000004 L270.9510223828125,285.555154296875 a7.0073,7.0073 0 0 1 2.77759,-9.50195 l107.89624,-59.08252 a7.00729,7.00729 0 0 1 9.50171,2.77734 l7.08887,12.9458 a7.00747,7.00747 0 0 1 -2.77759,9.50147 l-107.89624,59.083 A6.958,6.958 0 0 1 284.1915023828125,302.13721429687496 z" fill="#e98a8a" id="svg_9" class="" fill-opacity="1"/><path d="M434.32285238281247,233.68653429687498 a7.03316,7.03316 0 0 1 -2.1438,-0.3369200000000001 a6.95136,6.95136 0 0 1 -4.09155,-3.457 l-6.76343,-13.11816 a7.00685,7.00685 0 0 1 3.01392,-9.4292 l109.33716,-56.37158 a7.00756,7.00756 0 0 1 9.42944,3.01416 l6.76343,13.11816 a7.00685,7.00685 0 0 1 -3.01392,9.4292 L437.51694238281254,232.906744296875 A6.95521,6.95521 0 0 1 434.32285238281247,233.68653429687498 z" fill="#e98a8a" id="svg_10" class="" fill-opacity="1"/><path d="M417.68499587509154,244.85987453529356 A7.02048,7.02048 0 0 1 411.41427587509156,240.9941545352936 l-6.62134,-13.19043 a6.98672,6.98672 0 0 1 -0.54248,-4.8100000000000005 c0.04394000000000003,-0.1782300000000001 0.09473000000000015,-0.3569400000000002 0.1535600000000001,-0.53418 h0 c0.1337900000000001,-0.4028400000000002 0.2793000000000002,-1.03125 0.44751000000000035,-1.7587900000000007 c0.5366200000000004,-2.32032 1.20435,-5.208 2.56543,-5.89112 l48.04273,-29.11963 a6.99639,6.99639 0 0 1 9.43091,3.0962 l12.11865,24.979 a7.00668,7.00668 0 0 1 -3.11817,9.39062 l-53.12085,20.97217 A6.85616,6.85616 0 0 1 417.68499587509154,244.85987453529356 z" fill="#4f668d" id="svg_11" class="" fill-opacity="1"/><circle cx="410.4084777832031" cy="116.60147094726562" r="53.519161224365234" fill="#e98a8a" id="svg_12" class="" fill-opacity="1"/><path d="M401.97568238281247,456.447274296875 H387.21641238281245 a7.00786,7.00786 0 0 1 -7,-7 V326.43360429687505 a7.00785,7.00785 0 0 1 7,-7 h14.75927 a7.00785,7.00785 0 0 1 7,7 V449.447274296875 A7.00786,7.00786 0 0 1 401.97568238281247,456.447274296875 z" fill="#e98a8a" id="svg_13" class="" fill-opacity="1"/><path d="M465.5687023828125,400.263154296875 a6.99606,6.99606 0 0 1 -5.70361,-2.92578 L388.3167523828125,297.27100429687505 a7.00714,7.00714 0 0 1 1.6228000000000002,-9.76563 L401.9459423828125,278.920904296875 a7.00681,7.00681 0 0 1 9.76562,1.62256 l71.54834,100.06592 a7.00791,7.00791 0 0 1 -1.6230000000000002,9.76562 l-12.00635,8.585 A6.96313,6.96313 0 0 1 465.5687023828125,400.263154296875 z" fill="#e98a8a" id="svg_14" class="" fill-opacity="1"/><path d="M446.5872523828125,456.58936429687503 a9.63632,9.63632 0 0 1 -4.22753,-1.05762 l-13.21289,-6.57812 c-3.45508,-1.72071 -5.35889,-4.94239 -4.2439,-7.18164 l34.053,-68.39942 c1.115,-2.23926 4.83252,-2.66211 8.28857,-0.94238 l13.21265,6.57812 a9.31866,9.31866 0 0 1 3.7876000000000003,3.2924800000000003 a3.95614,3.95614 0 0 1 0.45654,3.88916 l-34.053,68.39942 C449.99546238281255,455.900884296875 448.44980238281255,456.58936429687503 446.5872523828125,456.58936429687503 z" fill="#e98a8a" id="svg_15" class="" fill-opacity="1"/><path d="M360.6341323828125,265.700204296875 a7.02082,7.02082 0 0 1 -6.332,-4.02 l-12.15674,-24.9458 a6.99925,6.99925 0 0 1 3.34985,-9.32031 l52.64624,-19.833 c1.3408200000000001,-0.6347700000000002 4.02442,0.6250000000000001 6.18067,1.63525 c0.6765100000000001,0.3173800000000001 1.26074,0.59131 1.6606400000000003,0.7348700000000001 c0.1753,0.06300000000000001 0.3471700000000001,0.1333 0.51465,0.20900000000000002 h0 a6.98771,6.98771 0 0 1 3.44849,3.39746 l6.28491,13.35352 a7.0087,7.0087 0 0 1 -3.35278,9.31494 l-49.22266,28.78662 A7.05828,7.05828 0 0 1 360.6341323828125,265.700204296875 z" fill="#4f668d" id="svg_16" class="" fill-opacity="1"/><path d="M403.28405238281255,136.43744429687501 l-0.05567000000000001,-2 c3.72071,-0.10351 7.001,-0.3369100000000001 9.46582,-2.13769 a6.148,6.148 0 0 0 2.3813500000000003,-4.52832 a3.51434,3.51434 0 0 0 -1.15283,-2.89453 c-1.63623,-1.38184 -4.269,-0.93457 -6.188,-0.054690000000000016 l-1.6547800000000001,0.7587900000000002 l3.17334,-23.19043 l1.98144,0.27148000000000005 l-2.6992200000000004,19.72656 c2.6074200000000003,-0.7666000000000002 5.02344,-0.4365200000000001 6.6782200000000005,0.9609400000000001 a5.471,5.471 0 0 1 1.86036,4.49219 a8.13267,8.13267 0 0 1 -3.2002,6.07324 C410.7069423828125,136.229434296875 406.59118238281246,136.34467429687498 403.28405238281255,136.43744429687501 z" fill="#2f2e41" id="svg_17"/><rect x="421.0340576171875" y="104.36324310302734" width="10.771479606628418" height="2" fill="#2f2e41" id="svg_18"/><rect x="387.0340576171875" y="104.36324310302734" width="10.771479606628418" height="2" fill="#2f2e41" id="svg_19" class=""/><path d="M496.18494238281255,341.466314296875 H329.70371238281245 a6.48606,6.48606 0 0 1 -5.62915,-9.75 L407.3150423828125,187.539554296875 a6.43415,6.43415 0 0 1 5.62939,-3.25 h0 a6.43375,6.43375 0 0 1 5.62915,3.25 l83.24073,144.17676 a6.50022,6.50022 0 0 1 -5.6294,9.75 z" fill="#4f668d" id="svg_20" class="" fill-opacity="1"/><path d="M600.4916423828125,457.966314296875 h-381 a1,1 0 1 1 0,-2 h381 a1,1 0 0 1 0,2 z" fill="#3f3d56" id="svg_21"/><path d="M414.4527523828125,62.42363429687498 c-5.9347,-23.78921 -28.9393,-42.05506 -53.58891,-41.60061 a56.772,56.772 0 0 0 -33.558,12.16809 a54.24459,54.24459 0 0 0 -12.30629,13.46455 c-3.71505,5.798 -6.0477,12.343 -7.86895,18.949 c-3.67993,13.34775 -5.41431,28.45182 -14.75278,39.35219 a41.015,41.015 0 0 1 -31.03333,13.96118 a38.31751,38.31751 0 0 1 -30.2953,-15.64338 c-7.02934,-9.37167 -10.49,-22.33283 -6.429,-33.64333 c1.9928,-5.55028 6.27785,-10.79315 12.4064,-11.71847 a14.46159,14.46159 0 0 1 14.31824,6.85351 c2.75611,4.836 1.8746800000000001,11.28885 -1.57824,15.55448 c-3.63688,4.49287 -9.71457,5.7369 -15.075,3.93181 a13.69782,13.69782 0 0 1 -6.3758,-4.52334 c-1.1987100000000002,-1.51374 -3.3233,0.6085200000000001 -2.13692,2.10669 a17.34128,17.34128 0 0 0 15.83909,6.05149 a16.1891,16.1891 0 0 0 12.90033,-10.77958 a16.43831,16.43831 0 0 0 -2.999,-16.61506 a17.58959,17.58959 0 0 0 -16.33936,-5.353 c-6.3281,1.33979 -10.92371,6.54439 -13.30872,12.31155 a34.35865,34.35865 0 0 0 -1.78941,18.84928 a44.16271,44.16271 0 0 0 20.21456,29.78113 c10.66857,6.55073 23.98479,7.452 35.68872,3.24415 a43.73782,43.73782 0 0 0 15.668610000000001,-9.64831 a46.89391,46.89391 0 0 0 10.793,-17.22521 c5.2768,-13.81628 6.04993,-29.27655 13.5162,-42.26358 A53.188,53.188 0 0 1 345.2936523828125,26.593154296875014 a49.736,49.736 0 0 1 36.91131,1.77186 a54.31011,54.31011 0 0 1 26.29348,26.10656 a48.6146,48.6146 0 0 1 3.05659,8.72877 c0.46819,1.8767300000000002 3.3654100000000002,1.09806 2.89772,-0.7767000000000001 z" fill="#2f2e41" id="svg_22"/><path d="M782.6058123828125,250.966314296875 h-235 a17.01916,17.01916 0 0 1 -17,-17 v-106 a17.01917,17.01917 0 0 1 17,-17 h235 a17.01917,17.01917 0 0 1 17,17 v106 A17.01916,17.01916 0 0 1 782.6058123828125,250.966314296875 zm-235,-138 a15.017,15.017 0 0 0 -15,15 v106 a15.017,15.017 0 0 0 15,15 h235 a15.017,15.017 0 0 0 15,-15 v-106 a15.017,15.017 0 0 0 -15,-15 z" fill="#3f3d56" id="svg_23"/><circle id="bbcca127-9e59-4001-a5e0-206590d8bff8" data-name="a50d232f-7710-43e4-8fa9-6ef0443fc454" cx="594.9871215820312" cy="161.09080505371094" r="21.747989654541016" fill="#ff7705" class="" fill-opacity="1"/><path id="e9da090a-4f8c-43a8-876d-bcf0a4f301e3" data-name="e49b4965-a9e9-4371-9134-194e44e65c31" d="M642.2151223828125,146.592304296875 a3.625,3.625 0 0 0 0,7.249 h110.878 a3.625,3.625 0 0 0 0.11900000000000002,-7.249 q-0.05941000000000001,-0.0010000000000000002 -0.11900000000000002,0 z" fill="#4f668d" class="" fill-opacity="1"/><path id="b50338f9-d267-4996-8bf7-ac3d8f49070f" data-name="abc4586a-ac92-4255-aae6-84f53baad571" d="M642.2151223828125,168.34029429687502 a3.625,3.625 0 0 0 0,7.249 h110.878 a3.625,3.625 0 0 0 0.11900000000000002,-7.249 q-0.05941000000000001,-0.0009200000000000004 -0.11900000000000002,0 z" fill="#4f668d" class="" fill-opacity="1"/><path id="e73ee58f-0bff-4d2a-854f-43aadef532f3" data-name="e49b4965-a9e9-4371-9134-194e44e65c31" d="M576.6073123828126,193.592304296875 a3.625,3.625 0 0 0 0,7.249 h176.878 a3.625,3.625 0 1 0 0.11900000000000002,-7.249 q-0.05942000000000001,-0.0010000000000000002 -0.11900000000000002,0 z" fill="#4f668d" class="" fill-opacity="1"/><path id="a71626ea-3ef2-475c-92dc-ce03b5d98f88" data-name="abc4586a-ac92-4255-aae6-84f53baad571" d="M576.6073123828126,215.34029429687502 a3.625,3.625 0 0 0 0,7.249 h176.878 a3.625,3.625 0 1 0 0.11900000000000002,-7.249 q-0.05942000000000001,-0.0009200000000000004 -0.11900000000000002,0 z" fill="#4f668d" class="" fill-opacity="1"/><path d="M792.7160523828124,224.58837429687497 c26.29,0.44900000000000007 26.28586,39.55484 -0.0008500000000000003,40 C766.4260623828125,264.139404296875 766.4301823828125,225.033544296875 792.7160523828124,224.58837429687497 z" fill="#ff7705" id="svg_24" class="" fill-opacity="1"/><path d="M792.7161623828125,255.47841429687497 a1.40725,1.40725 0 0 1 -1.40557,-1.40557 v-7.45237 a0.6271400000000001,0.6271400000000001 0 0 0 -0.6263200000000001,-0.6265200000000001 H783.2319423828125 a1.40576,1.40576 0 0 1 0,-2.81152 h7.45238 a0.6268100000000001,0.6268100000000001 0 0 0 0.6263200000000001,-0.6261300000000001 v-7.45276 a1.40548,1.40548 0 0 1 2.811,0 v7.45276 a0.6268100000000001,0.6268100000000001 0 0 0 0.62633,0.6261300000000001 h7.45237 a1.40576,1.40576 0 0 1 0,2.81152 h-7.45237 a0.6271400000000001,0.6271400000000001 0 0 0 -0.62633,0.6265200000000001 v7.45237 A1.40721,1.40721 0 0 1 792.7161623828125,255.47841429687497 z" fill="#fff" id="svg_25"/><path d="M265.6058123828125,384.966314296875 h-235 a17.01916,17.01916 0 0 1 -17,-17 v-106 a17.01917,17.01917 0 0 1 17,-17 h235 a17.01917,17.01917 0 0 1 17,17 v106 A17.01916,17.01916 0 0 1 265.6058123828125,384.966314296875 zm-235,-138 a15.017,15.017 0 0 0 -15,15 v106 a15.017,15.017 0 0 0 15,15 h235 a15.017,15.017 0 0 0 15,-15 v-106 a15.017,15.017 0 0 0 -15,-15 z" fill="#3f3d56" id="svg_26"/><path id="ecf93b7f-be09-422e-afbf-80018d7f0d55" data-name="e49b4965-a9e9-4371-9134-194e44e65c31" d="M59.607312382812495,289.467814296875 a3.625,3.625 0 0 0 0,7.249 h176.878 a3.625,3.625 0 1 0 0.11900000000000002,-7.249 q-0.05941000000000001,-0.0010000000000000002 -0.11900000000000002,0 z" fill="#4f668d" class="" fill-opacity="1"/><path id="b0602f4a-66cd-4d7a-b0a7-046c73c9962a" data-name="abc4586a-ac92-4255-aae6-84f53baad571" d="M59.607312382812495,311.21580429687504 a3.625,3.625 0 0 0 0,7.249 h176.878 a3.625,3.625 0 1 0 0.11900000000000002,-7.249 q-0.05941000000000001,-0.0009200000000000004 -0.11900000000000002,0 z" fill="#4f668d" class="" fill-opacity="1"/><path id="a1984a5c-edd7-4811-b4da-a016d2274011" data-name="abc4586a-ac92-4255-aae6-84f53baad571" d="M59.607312382812495,333.21580429687504 a3.625,3.625 0 0 0 0,7.249 h176.878 a3.625,3.625 0 1 0 0.11900000000000002,-7.249 q-0.05941000000000001,-0.0009200000000000004 -0.11900000000000002,0 z" fill="#4f668d" class="" fill-opacity="1"/><path d="M19.716052382812506,358.58837429687503 c26.29,0.44900000000000007 26.28586,39.55484 -0.0008500000000000003,40 C-6.573937617187511,398.139404296875 -6.5698176171875105,359.033544296875 19.716052382812506,358.58837429687503 z" fill="#ff7705" id="svg_27" class="" fill-opacity="1"/><path d="M19.716162382812513,389.47841429687503 a1.40725,1.40725 0 0 1 -1.40557,-1.40557 v-7.45237 a0.6271400000000001,0.6271400000000001 0 0 0 -0.6263200000000001,-0.6265200000000001 H10.231942382812491 a1.40576,1.40576 0 0 1 0,-2.81152 h7.45238 a0.6268100000000001,0.6268100000000001 0 0 0 0.6263200000000001,-0.6261300000000001 v-7.45276 a1.40548,1.40548 0 0 1 2.81095,0 v7.45276 a0.6268100000000001,0.6268100000000001 0 0 0 0.62633,0.6261300000000001 h7.45237 a1.40576,1.40576 0 0 1 0,2.81152 h-7.45237 a0.6271400000000001,0.6271400000000001 0 0 0 -0.62633,0.6265200000000001 v7.45237 A1.40721,1.40721 0 0 1 19.716162382812513,389.47841429687503 z" fill="#fff" id="svg_28"/></g></svg>