<svg xmlns="http://www.w3.org/2000/svg" data-name="Layer 1" width="1099" height="797.6803588867188" style=""><rect id="backgroundrect" width="100%" height="100%" x="0" y="0" fill="none" stroke="none"/><title>transfer money</title><g class="currentLayer" style=""><title>Layer 1</title><circle cx="471.0000915527344" cy="373.0000915527344" r="373.0000915527344" fill="#f2f2f2" id="svg_1" class=""/><ellipse cx="148" cy="774.0003662109375" rx="148" ry="23.68000030517578" fill="#f2f2f2" id="svg_2"/><ellipse cx="870" cy="736.96923828125" rx="229" ry="36.63999938964844" fill="#f2f2f2" id="svg_3"/><path d="M819.12034,384.78470181396483 s1.94963,6.49877 -9.09828,12.34766 s-14.2973,27.94472 -1.29975,34.44349 s16.8968,14.94718 10.398,20.79607 s-18.19656,21.446 -2.59951,25.34521 s17.54668,11.69779 12.99754,14.94717 s10.398,-5.84889 10.398,-5.84889 s2.59951,15.597 16.24693,11.69779 s51.99017,-77.98526 32.49385,-88.38329 S819.12034,384.78470181396483 819.12034,384.78470181396483 z" fill="#2f2e41" id="svg_4"/><path d="M842.67509,447.5369118139648 s6.74118,23.59415 -5.05589,25.27945 a46.05232,46.05232 0 0 0 -20.22356,8.42648 l21.90885,28.65 h40.44712 l25.27946,-25.27945 s-33.70594,-25.27945 -26.96475,-40.44712 S842.67509,447.5369118139648 842.67509,447.5369118139648 z" fill="#ffb9b9" id="svg_5"/><path d="M842.67509,447.5369118139648 s6.74118,23.59415 -5.05589,25.27945 a46.05232,46.05232 0 0 0 -20.22356,8.42648 l21.90885,28.65 h40.44712 l25.27946,-25.27945 s-33.70594,-25.27945 -26.96475,-40.44712 S842.67509,447.5369118139648 842.67509,447.5369118139648 z" opacity="0.1" id="svg_6"/><polygon points="852.787 740.779 891.549 754.261 918.513 755.946 916.828 732.352 861.213 715.904 852.787 740.779" fill="#ffb9b9" id="svg_7"/><path d="M902.50312,735.7226518139648 s0,23.59415 3.37059,23.59415 s48.87361,-5.05589 62.356,0 s33.70594,-13.48237 23.59416,-23.59415 s-26.60567,-25.27945 -36.897,-21.90886 s-52.42374,11.79708 -52.42374,11.79708 z" fill="#2f2e41" id="svg_8" class="" fill-opacity="1"/><path d="M778.63381,713.8137918139648 s-20.22356,40.44712 -6.7411900000000005,43.81772 s28.65005,-1.6853000000000002 30.33534,-3.3706 s25.27946,-8.42648 28.65,-5.05589 s3.37059,-13.48237 3.37059,-13.48237 z" fill="#2f2e41" id="svg_9" class="" fill-opacity="1"/><path d="M795.48678,658.1990018139649 s-32.02064,43.81771 -8.42649,55.61479 s136.509,11.79708 144.93552,0 s11.79708,-48.8736 0,-52.2442 S795.48678,658.1990018139649 795.48678,658.1990018139649 z" fill="#2f2e41" id="svg_10"/><path d="M795.48678,658.1990018139649 s-32.02064,43.81771 -8.42649,55.61479 s136.509,11.79708 144.93552,0 s11.79708,-48.8736 0,-52.2442 S795.48678,658.1990018139649 795.48678,658.1990018139649 z" opacity="0.2" id="svg_11" class="" fill-opacity="1" fill="#d0d5db"/><circle cx="856.157470703125" cy="420.5721740722656" r="38.7618293762207" fill="#ffb9b9" id="svg_12"/><path d="M795.48678,481.2428418139648 l33.70593,-6.7411900000000005 s8.42649,26.96475 35.39123,21.90886 s33.70594,-21.90886 33.70594,-21.90886 s20.22356,8.42649 21.90886,8.42649 s23.59415,8.42648 23.59415,13.48237 s-25.27945,55.61479 -25.27945,55.61479 l3.37059,91.006 l-124.712,-3.3706 l8.42649,-89.32072 z" fill="#ff7705" id="svg_13" class="" fill-opacity="1"/><path d="M776.94851,525.0605618139648 s-10.11178,89.32072 -3.37059,96.06191 s33.70593,25.27945 33.70593,25.27945 V626.1783618139649 l-13.48237,-25.27945 l13.48237,-58.98539 z" fill="#ffb9b9" id="svg_14"/><path d="M951.37673,522.5326118139649 s-5.898540000000001,91.84867 -5.898540000000001,95.21927 s-15.16767,15.16767 -20.22356,15.16767 s-8.42649,-8.42649 -8.42649,-8.42649 l11.79708,-13.48237 l-8.42648,-69.09717 z" fill="#ffb9b9" id="svg_15"/><path d="M935.36641,651.4578118139649 s75.83835,-42.13242 77.52365,0 s-38.76183,58.98539 -38.76183,58.98539 s-104.4884,31.332 -108.70164,19.87922 s-12.63972,-29.991 -5.898540000000001,-31.6763 s15.16767,-5.05589 18.53827,-1.6853000000000002 s45.503,-25.27945 45.503,-25.27945 z" fill="#4f668d" id="svg_16" class="" fill-opacity="1"/><path d="M970.75764,646.4019218139648 s-15.16767,6.7411900000000005 -20.22356,11.79708 s-26.96475,13.48237 -26.96475,13.48237 " fill="none" stroke="#000" stroke-miterlimit="10" stroke-width="2" opacity="0.2" id="svg_17"/><path d="M805.59856,484.6134318139649 l-10.11178,-3.37059 s-37.07653,38.76183 -25.27945,48.87361 s18.53826,13.48237 21.90885,16.853 s20.22356,5.05589 20.22356,5.05589 z" fill="#ff7705" id="svg_18" class="" fill-opacity="1"/><path d="M928.62522,493.03992181396484 l15.16767,3.37059 s11.79708,25.27945 15.16767,28.65 s-5.05589,1.6852900000000002 -10.11178,8.42648 s-10.11178,18.53826 -20.22356,18.53826 s-23.59415,-16.853 -23.59415,-16.853 z" fill="#ff7705" id="svg_19" class="" fill-opacity="1"/><path d="M798.85737,666.6254818139648 s-64.04128,-45.503 -85.95013,-11.79707 s94.37661,79.20894 111.22958,85.95013 s32.02064,13.48237 32.02064,13.48237 s15.16767,-37.07653 15.16767,-43.81771 s-11.79708,-6.7411900000000005 -15.16767,-6.7411900000000005 s-18.53826,-3.37059 -21.90886,-8.42648 S798.85737,666.6254818139648 798.85737,666.6254818139648 z" fill="#4f668d" id="svg_20" class="" fill-opacity="1"/><path d="M763.46614,654.8284118139649 s16.853,13.48237 32.02064,16.853 s20.22356,11.79708 20.22356,11.79708 " fill="none" stroke="#000" stroke-miterlimit="10" stroke-width="2" opacity="0.2" id="svg_21"/><path d="M787.232,591.4619218139649 l1.34634,71.35617 a8.93275,8.93275 0 0 0 9.03153,8.76368 l132.78977,-1.492 a8.93275,8.93275 0 0 0 8.81757,-8.4177 l4.03063,-69.86415 a8.93277,8.93277 0 0 0 -8.91793,-9.44726 H796.16318 A8.93276,8.93276 0 0 0 787.232,591.4619218139649 z" fill="#4f668d" id="svg_22" class="" fill-opacity="1"/><path d="M858.22836,371.87981181396486 s2.1598,7.19934 -10.07907,13.67875 s-15.83855,30.957160000000002 -1.43987,38.1565 s18.71828,16.55847 11.51894,23.03788 s-20.15815,23.75782 -2.8797300000000003,28.07742 s19.43821,12.95881 14.39867,16.55848 s11.519,-6.4794 11.519,-6.4794 s2.8797300000000003,17.27841 17.99834,12.95881 s30.20328,-82.83994 13.35031,-103.0635 C896.94463,376.00042181396486 858.22836,371.87981181396486 858.22836,371.87981181396486 z" fill="#2f2e41" id="svg_23"/><path d="M853.62952,364.4694118139648 c0.0032900000000000013,-10.5474 31.5587,-2.9686000000000003 45.088,11.75792 c9.3687,10.1979 23.59878,25.54036 11.67441,36.35523 s20.43938,24.99208 29.11908,29.29045 s25.81718,17.443 10.34329,26.26121 s-15.22443,17.71981 -9.401,19.82742 s-12.83934,-3.13373 -12.83934,-3.13373 s1.8855,17.415 -13.83788,17.3316 s-60.83248,-86.49446 -50.05628,-110.513 C873.73976,369.31360181396485 853.62952,364.4694118139648 853.62952,364.4694118139648 z" fill="#2f2e41" id="svg_24"/><path d="M860.46451,362.1579918139648 c-42.19784,-2.541 -46.43289,29.22289 -46.43289,29.22289 c0.29172000000000003,18.38181 29.48282,9.42517 37.59043,12.16542 c9.78139,-7.0364 28.635650000000002,-20.35008 42.11967,-29.85137 A63.77377,63.77377 0 0 0 860.46451,362.1579918139648 z" fill="#2f2e41" id="svg_25"/><path d="M848.44244,564.8485918139648 S810.59039,387.4491718139648 573.66943,258.76027181396483 " fill="none" stroke="#3f3d56" stroke-miterlimit="10" stroke-width="2" id="svg_26" class=""/><polygon points="583.431 254.891 583.905 256.836 574.322 259.16 577.341 268.549 575.435 269.16 571.76 257.724 583.431 254.891" fill="#3f3d56" id="svg_27"/><path d="M68.47332,746.1114918139648 c0,22.46856 -13.35644,30.31375 -29.83388,30.31375 q-0.57256,0 -1.14331,-0.012730000000000003 c-0.7634500000000001,-0.016360000000000006 -1.5196200000000002,-0.052710000000000014 -2.26669,-0.10361000000000001 c-14.87057,-1.05244 -26.42387,-9.30116 -26.42387,-30.19741 c0,-21.62515 27.63446,-48.91242 29.71026,-50.93189 l0.0036400000000000013,-0.0036300000000000013 c0.08000000000000002,-0.07816000000000002 0.12000000000000001,-0.11634000000000001 0.12000000000000001,-0.11634000000000001 S68.47332,723.6429318139649 68.47332,746.1114918139648 z" fill="#4f668d" id="svg_28" class="selected" fill-opacity="1"/><path d="M37.552459999999996,772.9879618139648 L48.46409,757.7411718139648 L37.525189999999995,774.6620718139649 l-0.029060000000000006,1.7504400000000002 c-0.7634500000000001,-0.016360000000000006 -1.5196200000000002,-0.052710000000000014 -2.26669,-0.10361000000000001 l1.17607,-22.47946 l-0.009100000000000002,-0.17451000000000003 l0.020000000000000004,-0.03271000000000001 l0.11088,-2.1230700000000002 L25.561089999999993,734.5363918139649 L36.561800000000005,749.9068418139649 l0.025480000000000006,0.45078999999999997 l0.8888300000000001,-16.98456 l-9.38839,-17.52807 l9.50291,14.547 l0.9252,-35.21244 l0.0036400000000000013,-0.12000000000000001 v0.11634000000000001 L38.364999999999995,722.9431718139648 l9.34661,-11.008 L38.326800000000006,725.3351718139648 l-0.24720000000000003,15.20685 l8.72677,-14.59429 l-8.76312,16.83189 l-0.13814,8.4541 l12.66934,-20.31277 l-12.7166,23.2629 z" fill="#3f3d56" id="svg_29"/><path d="M210.77324,740.2904818139648 l6.3818,-4.74121 s4.22435,23.59659 -0.48949000000000004,27.132 s-22.39076,9.42769 -22.39076,16.49846 s-40.06768,16.49845 -41.24614,5.8923000000000005 s3.53538,-16.49845 3.53538,-16.49845 s18.85538,-18.85538 21.2123,-22.39076 s8.24923,-10.60615 8.24923,-10.60615 z" fill="#2f2e41" id="svg_30" class=""/><path d="M116.49636000000001,446.85368181396484 s0.17679000000000003,1.03705 0.48306000000000004,2.9343500000000002 c0.28300000000000003,1.6852 0.6718000000000002,4.06571 1.14322,7.00007 c4.94962,30.204 19.38577,119.11886 18.40755,122.05322 c-1.17846,3.53538 -9.42768,16.49845 0,20.03384 c0.90744,0.3417200000000001 1.88551,1.44948 2.93436,3.19358 a68.49432,68.49432 0 0 1 4.98487,11.76109 c5.6212800000000005,16.30986 11.63155,42.4128 15.10795,60.49035 c1.52026,7.94289 2.55717,14.33013 2.86358,17.67692 a9.61182,9.61182 0 0 1 0.035390000000000005,2.3334 c-1.17846,4.71385 7.07076,21.2123 10.60615,25.92614 s9.42769,9.42769 8.24922,14.14154 s29.46153,17.67691 32.99691,9.42769 s3.53539,-12.96308 4.71385,-15.32 s2.35692,-18.85537 -3.53538,-21.2123 s-2.35693,-43.60306 -8.24923,-51.85228 c-1.96794,-2.7458400000000003 -4.97307,-12.04391 -8.11962,-23.2275 c-1.23729,-4.38384 -2.48653,-9.05057 -3.71218,-13.729 c-4.97307,-19.17358 -9.3805,-38.465 -9.3805,-38.465 L187.204,442.13983181396486 l-64.81536,-8.24922 l-1.66153,3.665 l-3.31154,7.27109 z" fill="#4f668d" id="svg_31" class="" fill-opacity="1"/><path d="M112.96100000000001,673.1181718139649 s-9.42769,-9.42769 -14.14153,0 s-9.42769,45.96 -17.67692,54.20921 s-18.85537,49.49537 -7.07076,51.85229 s24.74768,-3.53539 25.92614,-10.60615 S125.924,724.9704918139648 125.924,721.4351118139648 s-16.49845,-16.49846 -16.49845,-16.49846 z" fill="#2f2e41" id="svg_32"/><path d="M257.91168,382.03832181396484 s-15.32,137.87994 -18.85537,150.843 s-22.39076,62.45843 -28.28307,70.70766 s-43.60306,75.42151 -48.3169,78.95689 s-14.14154,12.96307 -14.14154,12.96307 s-17.67691,17.67692 -20.03383,21.2123 s-22.39076,-7.07076 -23.56922,-14.14153 s1.17846,-18.85538 2.35692,-23.56922 s-2.35692,-11.78461 1.17846,-15.32 s21.2123,-21.2123 21.2123,-29.46152 s30.64,-56.56613 42.4246,-67.17228 s9.42768,-28.28307 9.42768,-28.28307 V466.8875218139649 l-64.81535,-20.03384 s3.53538,-56.56613 11.78461,-56.56613 S244.94860999999997,371.4321718139648 257.91168,382.03832181396484 z" fill="#4f668d" id="svg_33" class="" fill-opacity="1"/><circle cx="162.4563446044922" cy="146.3461151123047" r="38.88922119140625" fill="#9f616a" id="svg_34"/><path d="M175.41941,176.98609181396483 s4.71384,17.67692 10.60615,22.39077 s-15.32,24.74768 -15.32,24.74768 l-40.06767,2.35692 l-7.07077,-22.39076 s12.96307,-25.92614 9.42769,-42.4246 S175.41941,176.98609181396483 175.41941,176.98609181396483 z" fill="#9f616a" id="svg_35"/><path d="M191.91786,197.01993181396483 s-10.60615,1.17846 -12.96307,4.71385 s-18.85537,14.14153 -31.81845,11.78461 s-21.2123,-5.89231 -23.56922,-4.71385 s-7.07076,25.92615 -7.07076,25.92615 l12.96307,37.71075 l-2.35692,103.70457 l-3.53539,28.28307 s-7.07076,-9.42769 21.2123,-3.53538 s64.81536,-4.71385 76.6,-5.89231 s31.81845,-4.71384 32.99691,-11.78461 s-3.53538,-32.99691 -3.53538,-32.99691 l-18.85538,-78.95689 l-11.78461,-42.4246 z" fill="#ff7705" id="svg_36" class="" fill-opacity="1"/><path d="M180.77092,191.70106181396486 s9.96848,-5.28728 13.50387,-0.57343 s48.3169,11.78461 48.3169,15.32 s9.42769,98.99073 7.07077,107.24 s4.71384,17.67691 4.71384,17.67691 l8.24923,35.35384 s22.39076,67.17228 12.96307,69.5292 s-17.67692,0 -21.2123,0 s-2.35692,-44.78152 -11.78461,-56.56613 s-22.39076,-41.24614 -24.74768,-47.13844 s-31.81845,-87.20612 -30.64,-96.63381 S180.77092,191.70106181396486 180.77092,191.70106181396486 z" fill="#4f668d" id="svg_37" class="" fill-opacity="1"/><path d="M131.81635,197.01993181396483 s-9.42769,0 -10.60615,2.35693 S108.24713,217.05377181396483 103.53327999999999,220.58917181396487 S82.321,239.44453181396483 82.321,242.97991181396486 s34.17537,29.46153 34.17537,29.46153 s14.14153,69.5292 7.07076,93.09842 s-17.67691,80.13536 -12.96307,83.67074 s15.32,4.71384 15.32,0 s7.07077,-55.38767 12.96308,-65.99382 s23.56922,-77.77843 16.49845,-96.63381 S131.81635,197.01993181396483 131.81635,197.01993181396483 z" fill="#4f668d" id="svg_38" class="" fill-opacity="1"/><path d="M287.37321,313.68758181396487 s1.17846,36.53229 -11.78461,55.38767 s-21.2123,40.06767 -21.2123,40.06767 s-21.2123,-5.8923000000000005 -24.74768,-12.96307 s-25.92615,-1.17846 -25.92615,-3.53538 s27.10461,-14.14153 29.46153,-16.49846 s10.60615,-2.35692 15.32,-7.07076 s5.89231,-15.32 5.89231,-15.32 l4.71384,-30.64 z" fill="#9f616a" id="svg_39"/><path d="M189.24117,122.36783181396484 c2.9918,-0.27176 6.07737,-0.5707900000000001 8.72149,-1.99675 c5.92458,-3.19509 7.49563,-12.29387 2.98552,-17.290680000000002 a22.344,22.344 0 0 0 -4.14313,-3.33142 l-8.95783,-6.09718 c-3.96186,-2.6966400000000004 -8.01737,-5.43748 -12.6382,-6.7087200000000005 c-4.17944,-1.14979 -8.59364,-1.0316400000000001 -12.92,-0.7627200000000002 c-8.39862,0.522 -16.84923,1.6002800000000001 -24.74865,4.5 s-15.2682,7.75089 -20.05246,14.67333 c-7.58453,10.9742 -7.68878,25.77486 -3.51145,38.444 s12.11238,23.7014 19.9311,34.51 l4.05692,-19.7948 c0.36135000000000006,-1.76309 0.8286400000000002,-3.69543 2.295,-4.7389 c3.64454,-2.59347 8.10267,2.73144 12.57565,2.6969200000000004 c2.87408,-0.022180000000000005 5.28706,-2.38612 6.37625,-5.04591 s1.1609,-5.60529 1.4129,-8.46838 c0.5337400000000001,-6.06421 2.65335,-14.50206 8.39619,-17.84651 C174.37188,121.99365181396485 183.226,122.91417181396486 189.24117,122.36783181396484 z" fill="#2f2e41" id="svg_40"/><path d="M187.0596,447.80480181396484 s-3.98019,115.12729 -6.3371200000000005,118.66268 s0,-119.02457 0,-119.02457 z" opacity="0.1" id="svg_41"/><path d="M233.164,206.44762181396482 h9.42769 s40.06768,54.20921 35.35383,57.74459 s0,12.96308 0,12.96308 l9.42769,17.67691 s11.78461,10.60615 8.24923,12.96307 s-8.24923,11.78461 -8.24923,11.78461 s-23.56922,-3.53538 -30.64,10.60615 L241.4488,310.89040181396484 z" fill="#4f668d" id="svg_42" class="" fill-opacity="1"/><rect x="117.67988586425781" y="359.82293701171875" width="35" height="65.22364807128906" transform="rotate(-22.437870025634766 -148.08839416503912,80.56852722167973) " fill="#2f2e41" id="svg_43"/><ellipse cx="135.29864501953125" cy="383.5045166015625" rx="7" ry="6.430500030517578" transform="rotate(-22.437850952148438 135.29864501953105,383.5045166015625) " fill="#4f668d" id="svg_44" class="" fill-opacity="1"/><path d="M209.59478000000001,300.72451181396485 s-84.8492,70.70766 -98.99073,48.3169 s15.32,-41.24614 15.32,-41.24614 s25.92615,1.17846 55.38767,-17.67691 l29.46153,-12.96307 s26.89605,-38.399 36.06141,-23.777 S231.18955999999997,293.44867181396484 209.59478000000001,300.72451181396485 z" fill="#9f616a" id="svg_45"/><path d="M95.28406000000001,238.26607181396486 L82.321,242.97991181396486 v35.35384 l-4.71385,7.07076 s1.17846,14.14154 4.71385,17.67692 s10.60614,2.35692 8.24922,10.60615 a44.667,44.667 0 0 0 -1.17846,16.49845 s21.2123,27.10461 22.39076,23.56922 s17.67692,-47.13844 20.03384,-47.13844 s-23.56922,-68.35074 -23.56922,-68.35074 z" fill="#4f668d" id="svg_46" class="" fill-opacity="1"/><path d="M250.25169,416.8029218139649 s12.185,-11.78461 6.09251,-12.37384 s-27.30481,-12.37384 -30.8402,-6.48154 S250.25169,416.8029218139649 250.25169,416.8029218139649 z" fill="#4f668d" id="svg_47" class="" fill-opacity="1"/><ellipse cx="482" cy="183.00033569335938" rx="17" ry="9" fill="#57b894" id="svg_48"/><path d="M547,213.00034181396484 q-57.5,-21.71653 -115,0 v-47 a199.03781,199.03781 0 0 1 115,0 z" fill="none" stroke="#3f3d56" stroke-miterlimit="10" stroke-width="2" id="svg_49"/><path d="M531,203.28048181396485 q-41.5,-15.673680000000001 -83,0 V169.35874181396485 a143.65344,143.65344 0 0 1 83,0 z" fill="none" stroke="#3f3d56" stroke-miterlimit="10" stroke-width="2" id="svg_50"/><ellipse cx="488" cy="179.00033569335938" rx="17" ry="9" fill="none" stroke="#3f3d56" stroke-miterlimit="10" stroke-width="2" id="svg_51"/><ellipse cx="445.53857421875" cy="354.04376220703125" rx="17" ry="9" transform="rotate(-11.535460472106934 -97.66162872314442,63.33821105957031) " fill="#57b894" id="svg_52"/><path d="M562.3865,255.94143181396487 q-60.68128,-9.77937 -112.67713,22.99705 l-9.39879,-46.05065 a199.03782,199.03782 0 0 1 112.67713,-22.99705 z" fill="none" stroke="#3f3d56" stroke-miterlimit="10" stroke-width="2" id="svg_53"/><path d="M544.766,249.61749181396482 q-43.79606,-7.05816 -81.32349,16.59787 L456.659,232.97880181396482 a143.6534,143.6534 0 0 1 81.32349,-16.59787 z" fill="none" stroke="#3f3d56" stroke-miterlimit="10" stroke-width="2" id="svg_54"/><ellipse cx="451.7437438964844" cy="349.83697509765625" rx="17" ry="9" transform="rotate(-11.535460472106934 -96.53536224365236,64.25047302246092) " fill="none" stroke="#3f3d56" stroke-miterlimit="10" stroke-width="2" id="svg_55"/><ellipse cx="645.5772094726562" cy="1156.439208984375" rx="9" ry="17" transform="rotate(-86.01940155029297 105.90247344970703,809.7943115234375) " fill="#57b894" id="svg_56"/><path d="M551.93539,329.9249918139648 q-55.85373,-25.65573 -114.72258,-7.98316 l3.26268,-46.88662 a199.03794,199.03794 0 0 1 114.72258,7.98316 z" fill="none" stroke="#3f3d56" stroke-miterlimit="10" stroke-width="2" id="svg_57"/><path d="M536.64873,319.11788181396486 Q496.33691,300.60117181396487 453.849,313.3561218139648 l2.35481,-33.83991 a143.6534,143.6534 0 0 1 82.79977,5.76176 z" fill="none" stroke="#3f3d56" stroke-miterlimit="10" stroke-width="2" id="svg_58"/><ellipse cx="661.2340698242188" cy="1155.787841796875" rx="9" ry="17" transform="rotate(-86.01940155029297 115.29609680175788,812.7166748046876) " fill="none" stroke="#3f3d56" stroke-miterlimit="10" stroke-width="2" id="svg_59"/><path d="M414.92181,214.09154181396485 s-73.49612,-10.05473 -125.98187,20.70386 " fill="none" stroke="#3f3d56" stroke-miterlimit="10" stroke-width="2" id="svg_60"/><polygon points="290.708 224.459 292.617 225.063 289.633 234.462 299.227 236.751 298.76 238.698 287.077 235.907 290.708 224.459" fill="#3f3d56" id="svg_61"/></g></svg>