<svg xmlns="http://www.w3.org/2000/svg" version="1.1" xmlns:xlink="http://www.w3.org/1999/xlink" xmlns:svgjs="http://svgjs.com/svgjs" width="1440" height="560" preserveAspectRatio="none" viewBox="0 0 1440 560"><g mask="url(&quot;#SvgjsMask1138&quot;)" fill="none"><rect width="1440" height="560" x="0" y="0" fill="url(#SvgjsRadialGradient1139)"></rect><path d="M0 0L342.45 0L0 27z" fill="rgba(255, 255, 255, .1)"></path><path d="M0 27L342.45 0L824.77 0L0 93.33z" fill="rgba(255, 255, 255, .075)"></path><path d="M0 93.33L824.77 0L970.21 0L0 328.25z" fill="rgba(255, 255, 255, .05)"></path><path d="M0 328.25L970.21 0L987.0500000000001 0L0 452.63z" fill="rgba(255, 255, 255, .025)"></path><path d="M1440 560L1161.45 560L1440 364.32z" fill="rgba(0, 0, 0, .1)"></path><path d="M1440 364.32L1161.45 560L1126.42 560L1440 212.26999999999998z" fill="rgba(0, 0, 0, .075)"></path><path d="M1440 212.26999999999998L1126.42 560L946.5200000000001 560L1440 170.21999999999997z" fill="rgba(0, 0, 0, .05)"></path><path d="M1440 170.21999999999997L946.52 560L658.5 560L1440 126.67999999999998z" fill="rgba(0, 0, 0, .025)"></path></g><defs><mask id="SvgjsMask1138"><rect width="1440" height="560" fill="#ffffff"></rect></mask><radialGradient cx="50%" cy="50%" r="772.53" gradientUnits="userSpaceOnUse" id="SvgjsRadialGradient1139"><stop stop-color="rgba(248, 119, 5, 1)" offset="0.5"></stop><stop stop-color="rgba(248, 119, 5, 1)" offset="0.64"></stop><stop stop-color="rgba(248, 119, 5, 1)" offset="1"></stop></radialGradient></defs></svg>