<svg xmlns="http://www.w3.org/2000/svg" data-name="Layer 1" width="897.5" height="585.9912109375"><rect id="backgroundrect" width="100%" height="100%" x="0" y="0" fill="none" stroke="none"/><g class="currentLayer" style=""><title>Layer 1</title><path d="M596.98462,536.18460546875 l-1.11768,-1.6582000000000001 q2.47889,-1.6706500000000002 4.92188,-3.38916 l1.15112,1.6357400000000002 Q599.48084,534.50366546875 596.98462,536.18460546875 z" fill="#ccc" id="svg_1"/><path d="M435.63208,585.99121546875 l-0.01416,-2 c4.04395,-0.028810000000000002 8.13184,-0.14209000000000002 12.14966,-0.33643000000000006 l0.09668000000000003,1.99805 C443.81885,585.84814546875 439.70336999999995,585.96191546875 435.63208,585.99121546875 zm-12.23511,-0.16309000000000004 c-4.06054,-0.13770000000000002 -8.17114,-0.3618200000000001 -12.21753,-0.6670000000000001 l0.15039000000000002,-1.99414 c4.019,0.30273 8.10181,0.52588 12.135,0.6621100000000001 zm36.6709,-1.01758 l-0.17871000000000004,-1.99219 c4.01367,-0.36035000000000006 8.07666,-0.81054 12.07593,-1.3388600000000002 l0.262,1.9824199999999998 C468.2002,583.99414546875 464.10938,584.44775546875 460.06786999999997,584.81054546875 zm-61.0686,-0.8212900000000001 c-4.04224,-0.47412000000000004 -8.12012,-1.03906 -12.12085,-1.6792000000000002 l0.3159200000000001,-1.97461 c3.97314,0.63526 8.02343,1.19629 12.03784,1.66748 zm85.31958,-2.38232 l-0.34424000000000005,-1.9697300000000002 c3.96875,-0.6938500000000002 7.98,-1.48242 11.92236,-2.34375 l0.42676000000000003,1.9541 C492.35425,580.11474546875 488.31519000000003,580.90869546875 484.31885,581.60693546875 zm-109.48023,-1.4814500000000002 c-3.97924,-0.80859 -7.99585,-1.7128900000000002 -11.938,-2.688 l0.48000000000000004,-1.9414 c3.91528,0.96826 7.90429,1.8662100000000001 11.85644,2.66943 zm133.38086,-3.7397400000000003 l-0.5083,-1.93457 c3.8999,-1.02539 7.83081,-2.14795 11.68408,-3.33643 l0.5896000000000001,1.91113 C516.105,574.22265546875 512.14648,575.35302546875 508.21948,576.38574546875 zm-157.16089,-2.14453 c-3.90161,-1.14209 -7.83593,-2.38379 -11.69336,-3.6914100000000003 l0.6420900000000002,-1.89453 c3.83106,1.2988300000000002 7.73829,2.53222 11.6128,3.6660000000000004 zm180.5398,-5.06788 L530.929,567.28860546875 c3.8,-1.3496100000000002 7.623,-2.79883 11.363,-4.30713 l0.7480000000000001,1.8544900000000002 C539.27417,566.35498546875 535.42456,567.81445546875 531.59839,569.17333546875 zm-203.7583,-2.80419 c-3.79712,-1.46875 -7.61109,-3.03711 -11.33545,-4.6611400000000005 l0.79932,-1.8330000000000002 c3.6990000000000003,1.6128 7.48657,3.16993 11.25781,4.62891 zm226.4497,-6.34766 l-0.8256800000000001,-1.82129 c3.678,-1.6670000000000003 7.36621,-3.43213 10.96216,-5.24707 l0.90137,1.7851599999999999 C561.70679,556.56591546875 557.99292,558.34326546875 554.28979,560.02148546875 zm-248.91259,-3.4458 c-3.65479,-1.7797900000000002 -7.322,-3.66211 -10.89966,-5.59375 l0.9501900000000001,-1.75977 c3.55323,1.91846 7.19532,3.7876000000000003 10.8252,5.55567 zM576.13452,548.99760546875 l-0.9751,-1.7460900000000001 c3.5232,-1.9672900000000002 7.051,-4.03516 10.48536,-6.146 l1.04736,1.7041 C583.23389,544.93460546875 579.68188,547.01660546875 576.13452,548.99760546875 zm-292.311,-4.061 c-3.48853,-2.07715 -6.98413,-4.25879 -10.39014,-6.48438 l1.09424,-1.6738300000000002 c3.3825700000000003,2.21 6.85425,4.377 10.31885,6.43946 zm-20.499,-13.39453 c-3.30224,-2.36035 -6.603,-4.82471 -9.81054,-7.32471 l1.22949,-1.57715 c3.18579,2.48291 6.46411,4.93067 9.74414,7.2749 zm-19.30664,-15.04981 c-3.09985,-2.63086 -6.18384,-5.36035 -9.166,-8.1123 l1.35644,-1.46973 c2.96192,2.7334 6.0249,5.44434 9.10352,8.05664 zm-17.98535,-16.59619 c-2.86841,-2.87646 -5.71448,-5.85107 -8.459,-8.8418 l1.47363,-1.35254 c2.72583,2.97071 5.55249,5.9253 8.40137,8.78223 zM209.48987,481.87060546875 c-2.6156,-3.09912 -5.20423,-6.29834 -7.69409,-9.50977 l1.58056,-1.2255800000000001 c2.473,3.18945 5.04407,6.36719 7.64185,9.44531 zM194.50475999999998,462.53960546875 c-2.35144,-3.3086 -4.66467,-6.71094 -6.87512,-10.11329 l1.6771200000000002,-1.08984 c2.19544,3.3789100000000003 4.49268,6.75879 6.82813,10.04492 zM181.18335000000002,442.03660546875005 c-2.06751,-3.49219 -4.08826,-7.07471 -6.0061,-10.647 l1.7622,-0.9462900000000001 c1.90467,3.54834 3.9115,7.106 5.965,10.57471 zm-11.56043,-21.53467 c-1.7670000000000001,-3.64942 -3.48034,-7.38672 -5.09252,-11.10742 l1.8352,-0.79493 c1.60107,3.69483 3.30261,7.40625 5.0575,11.03125 zm-9.71337,-22.415 c-1.45618,-3.78906 -2.85083,-7.6582 -4.145,-11.50049 l1.89526,-0.6386700000000002 c1.28552,3.81592 2.67041,7.65869 4.11658,11.42139 z" fill="#ccc" id="svg_2"/><path d="M152.07238999999998,374.80322546875004 q-0.8379000000000001,-2.88722 -1.6179200000000002,-5.79932 l1.93188,-0.5175799999999999 q0.7743599999999999,2.89161 1.6066900000000002,5.75928 z" fill="#ccc" id="svg_3"/><path d="M722.69312,260.38769546875 q-0.33216000000000007,-2.9765699999999997 -0.7233900000000001,-5.93457 l1.98266,-0.2627 q0.3944100000000001,2.97876 0.7285200000000001,5.97559 z" fill="#ccc" id="svg_4"/><path d="M696.81592,421.65576546875 l-1.7963900000000002,-0.8794000000000001 c1.718,-3.50976 3.38794,-7.104 4.96314,-10.68359 l1.83056,0.80566 C700.22705,414.50292546875005 698.5459,418.12206546874995 696.81592,421.65576546875 zm9.55249,-21.71045 l-1.8618200000000003,-0.7304700000000001 c1.42725,-3.6381900000000003 2.79907,-7.35645 4.07715,-11.05176 l1.8901400000000002,0.6533200000000001 C709.187,392.53760546875003 707.80566,396.28173546874996 706.36841,399.94531546875 zm7.7539,-22.41553 l-1.91552,-0.5761700000000001 c1.12744,-3.749 2.19165,-7.56739 3.16284,-11.34912 l1.937,0.49756000000000006 C716.32861,369.90966546874995 715.25732,373.75439546875 714.12231,377.52978546875 zm5.9004,-22.9751 l-1.95557,-0.41800000000000004 c0.8171400000000001,-3.82275 1.5668900000000001,-7.71533 2.22827,-11.56982 l1.97119,0.3378900000000001 C721.60059,346.78613546875 720.8457,350.70605546875 720.02271,354.55468546875 zm4.01269,-23.38086 l-1.9834,-0.25781000000000004 c0.50391,-3.87109 0.936,-7.812 1.28418,-11.71338 l1.99219,0.17774000000000004 C724.97754,323.30860546875 724.54272,327.27636546875 724.0354,331.17382546875 zm2.10986,-23.63037 l-1.99755,-0.09765000000000003 c0.19067,-3.89844 0.30517000000000005,-7.86182 0.3403300000000001,-11.7793 l2,0.017580000000000005 C726.45239,299.62841546875 726.33716,303.61865546875 726.14526,307.54345546875 zm-1.7854,-23.66162 c-0.12011000000000001,-3.91016 -0.32129,-7.86816 -0.5976500000000001,-11.76367 l1.99511,-0.1416 c0.27808000000000005,3.92236 0.48047000000000006,7.90722 0.60157,11.84375 z" fill="#ccc" id="svg_5"/><path d="M688.48633,437.43212546875 l-1.73926,-0.9873 q1.47363,-2.59717 2.89575,-5.22656 l1.75928,0.9511700000000001 Q689.97058,434.81712546874996 688.48633,437.43212546875 z" fill="#ccc" id="svg_6"/><path d="M170.67273,167.92871546875 l-1.80542,-0.86036 q1.2963900000000002,-2.7194700000000003 2.6467300000000002,-5.40771 l1.78735,0.89746 Q171.96051,165.22850546874997 170.67273,167.92871546875 z" fill="#ccc" id="svg_7"/><path d="M178.88600000000002,151.98876546875 l-1.74866,-0.9707 c1.9390900000000002,-3.49365 3.97656,-6.99267 6.05591,-10.40137 l1.70727,1.042 C182.83544999999998,145.04345546874998 180.81189,148.51904546875 178.88600000000002,151.98876546875 zm504.06421,-8.92627 c-2.04273,-3.3916 -4.18677,-6.7915 -6.37281,-10.105 l1.6694400000000003,-1.10156 c2.20092,3.33643 4.35986,6.7597700000000005 6.41674,10.17432 zm-491.61475,-11.481 l-1.6630900000000002,-1.11035 c2.219,-3.32227 4.53711,-6.644 6.890000000000001,-9.87207 l1.6162100000000001,1.17773 C195.84167000000002,124.98339546875002 193.53942999999998,128.28222546875003 191.33544999999998,131.58154546875 zm478.45972,-8.46 c-2.31812,-3.21827 -4.73365,-6.43164 -7.17969,-9.55078 l1.57373,-1.23438 c2.46289,3.14063 4.8950000000000005,6.376 7.229,9.61621 zm-464.3783,-10.85987 l-1.56665,-1.24316 c2.484,-3.13037 5.06555,-6.25049 7.67285,-9.27393 l1.5144099999999998,1.30664 C210.44788,106.05371546875 207.88400000000001,109.15234546875001 205.41687000000002,112.26171546875003 zm449.63367,-7.9414 c-2.5752,-3.021 -5.24561,-6.02735 -7.937,-8.93506 l1.46777,-1.3584 c2.70972,2.92773 5.39844,5.9541 7.99121,8.99561 zM221.02758999999998,94.15966546875 l-1.46,-1.36718 c2.7279,-2.91358 5.55493,-5.8125 8.40258,-8.61524 l1.40308,1.4248100000000001 C226.54492,88.38622546875001 223.73705999999999,91.26560546875001 221.02758999999998,94.15966546875 zm417.79,-7.37842 c-2.80982,-2.79785 -5.7170000000000005,-5.57666 -8.64087,-8.25927 l1.35205,-1.47364 c2.9438500000000003,2.70118 5.87085,5.499 8.69995,8.31592 zM238.06054999999998,77.39360546875 l-1.34375,-1.4814500000000002 c2.95678,-2.6816400000000002 6.01049,-5.33984 9.07592,-7.90039 l1.28223,1.5351599999999999 C244.02999999999997,72.08984546875001 240.99731000000003,74.72998546874999 238.06054999999998,77.39360546875 zm383.14453,-6.77149 c-3.031,-2.561 -6.15576,-5.09375 -9.2876,-7.52783 l1.22705,-1.5791 c3.15357,2.45068 6.29981,5.001 9.35156,7.57959 zm-364.80347,-8.54687 l-1.2182600000000001,-1.5859400000000001 c3.16455,-2.43066 6.42456,-4.83008 9.68945,-7.13183 l1.15235,1.63476 C262.78247,57.27831546875001 259.54468,59.66160546875 256.40161,62.075195468749996 zm345.927,-6.12354 c-3.231,-2.30517 -6.553,-4.57421 -9.87378,-6.74414 l1.09375,-1.6743100000000002 c3.34375,2.18506 6.68848,4.46924 9.94165,6.79052 zM275.92944,48.30960546874999 L274.845,46.62890546874999 c3.35327,-2.16357 6.7981,-4.2876 10.23877,-6.313 l1.01465,1.72364 C282.68115,44.05126546874999 279.25977,46.16060546874999 275.92944,48.30960546874999 zm306.38135,-5.43554 c-3.40625,-2.03125 -6.904,-4.02051 -10.396,-5.91211 l0.9526400000000002,-1.7587900000000003 c3.51611,1.9047800000000001 7.03809,3.90771 10.46778,5.95312 zm-285.79541,-6.68213 l-0.9428700000000001,-1.7636700000000003 c3.5224599999999997,-1.8828200000000002 7.12939,-3.71631 10.7207,-5.44971 l0.8693900000000001,1.80078 C303.596,32.50097546875 300.01367,34.322265468750004 296.51538,36.191895468750005 zm264.76758,-4.71 c-3.57422,-1.749 -7.22485,-3.44336 -10.85059,-5.03613 l0.8042,-1.83106 c3.65113,1.60352 7.32691,3.30957 10.9253,5.07129 zm-243.26123,-5.67041 l-0.79444,-1.8359400000000001 c3.66041,-1.5835 7.405,-3.11328 11.13062,-4.54639 l0.7177700000000001,1.8671900000000001 C325.376,22.719235468750014 321.65674,24.238285468750007 318.02173,25.811525468750006 zm221.36011,-3.9502 c-3.6967800000000004,-1.4443300000000001 -7.47608,-2.832 -11.23291,-4.12353 l0.6503900000000001,-1.8916000000000002 c3.78271,1.30078 7.58838,2.69775 11.31054,4.15234 zm-199.07691,-4.61914 l-0.6401400000000002,-1.89453 c3.7837,-1.2783200000000001 7.6408700000000005,-2.49316 11.46436,-3.61084 l0.561,1.91992 C347.89307,14.766605468749987 344.0625,15.973145468750005 340.30493,17.242185468749994 zm176.44824,-3.15967 c-3.80761,-1.13476 -7.68994,-2.20507 -11.5393,-3.18066 l0.49121000000000004,-1.93848 c3.8760000000000003,0.9824299999999999 7.7854,2.05957 11.61938,3.20215 zm-153.5415,-3.53808 l-0.48145000000000004,-1.9414099999999999 c3.87427,-0.96045 7.8169,-1.85254 11.71851,-2.6503900000000002 l0.40088000000000007,1.959 C370.97484999999995,8.704605468750003 367.05933000000005,9.590335468749998 363.21167,10.54443546875001 zm130.33813,-2.34229 c-3.8706,-0.8125 -7.822,-1.5566400000000002 -11.74462,-2.2124 l0.32959000000000005,-1.9726599999999999 c3.9497,0.6601600000000001 7.92871,1.40967 11.82617,2.228 zm-106.94409,-2.44433 l-0.3198200000000001,-1.97461 c3.9414,-0.6386700000000002 7.95068,-1.20362 11.916,-1.6792000000000002 l0.23829000000000003,1.98535 C394.50199999999995,4.5620154687499905 390.52026,5.123535468749992 386.60571000000004,5.75781546875001 zm83.37329,-1.49463 c-3.92675,-0.49121000000000004 -7.92578,-0.9086900000000001 -11.88647,-1.23975 l0.16650000000000004,-1.99316 c3.988,0.33349000000000006 8.01465,0.7534200000000001 11.96851,1.2485300000000001 zm-59.646,-1.355 l-0.15700000000000003,-1.99414 c3.97924,-0.31300000000000006 8.02075,-0.54883 12.01269,-0.7006900000000001 l0.07568000000000001,1.99854 C418.29956000000004,2.3627954687499937 414.28516,2.596675468749993 410.33299999999997,2.9082054687499976 zm35.83178,-0.6386700000000002 c-3.96044,-0.16895000000000004 -7.98046,-0.25977 -11.94873,-0.26954 l0.004890000000000001,-2 c3.99487,0.009770000000000004 8.042,0.10108 12.02929,0.27149 z" fill="#ccc" id="svg_8"/><path d="M691.76782,158.78369546875 q-1.38171,-2.65357 -2.81592,-5.27442 l1.7544,-0.9600000000000001 q1.4443300000000001,2.63892 2.83545,5.31055 z" fill="#ccc" id="svg_9"/><path d="M369.5,195.99902546875 h-18.5 v156.5 a15.01828,15.01828 0 0 1 -15,15 H33.5 v13.5 a17.02411,17.02411 0 0 0 17,17 h319 a17.02411,17.02411 0 0 0 17,-17 v-168 A17.0241,17.0241 0 0 0 369.5,195.99902546875 z" fill="#4f668d" id="svg_10" class="" fill-opacity="1"/><path d="M336,167.49902546875 h-319 a17.0241,17.0241 0 0 0 -17,17 v168 a17.02411,17.02411 0 0 0 17,17 h319 a17.02411,17.02411 0 0 0 17,-17 v-168 A17.0241,17.0241 0 0 0 336,167.49902546875 zm15,185 a15.01828,15.01828 0 0 1 -15,15 h-319 a15.01828,15.01828 0 0 1 -15,-15 v-168 a15.01828,15.01828 0 0 1 15,-15 h319 a15.01828,15.01828 0 0 1 15,15 z" fill="#3f3d56" id="svg_11"/><path d="M311.941,291.49902546875 h-112 a8,8 0 1 1 0,-16 h112 a8,8 0 0 1 0,16 z" fill="#ff7705" id="svg_12" class="" fill-opacity="1"/><path d="M241.94099999999997,257.49902546875 h-42 a8,8 0 1 1 0,-16 h42 a8,8 0 0 1 0,16 z" fill="#ff7705" id="svg_13" class="" fill-opacity="1"/><path d="M149.5,331.49902546875 h-102 a8.50958,8.50958 0 0 1 -8.5,-8.5 v-113 a8.50958,8.50958 0 0 1 8.5,-8.5 h102 a8.50958,8.50958 0 0 1 8.5,8.5 v113 A8.50958,8.50958 0 0 1 149.5,331.49902546875 z" fill="#ff7705" id="svg_14" class="" fill-opacity="1" stroke="#dadada" stroke-opacity="1"/><path d="M100.04364000000001,307.96203546875 c-2.24912,-0.06278000000000002 -5.04827,-0.14150000000000001 -7.20339,-1.7158600000000002 a5.53254,5.53254 0 0 1 -2.17687,-4.13089 a3.72128,3.72128 0 0 1 1.26547,-3.05606 a4.80152,4.80152 0 0 1 4.54274,-0.6540000000000001 l-1.83609,-13.41832 l1.3478400000000001,-0.18467 l2.15861,15.77488 l-1.12547,-0.5164799999999999 c-1.3050000000000002,-0.59853 -3.09626,-0.9027700000000001 -4.20944,0.03753000000000001 a2.39,2.39 0 0 0 -0.784,1.969 a4.18128,4.18128 0 0 0 1.61971,3.08031 c1.6771600000000002,1.22562 3.90834,1.38372 6.43912,1.4548 z" fill="#3f3d56" id="svg_15" class=""/><rect x="80.64257049560547" y="286.14410400390625" width="7.327280044555664" height="1.3604600429534912" fill="#3f3d56" id="svg_16"/><rect x="103.77046966552734" y="286.14410400390625" width="7.327280044555664" height="1.3604600429534912" fill="#3f3d56" id="svg_17"/><path d="M67.91256000000001,267.35772546875 c-5.90049,-0.6728500000000002 -10.47028,-6.32632 -10.97221,-12.06254 c-0.5971200000000001,-6.8241700000000005 3.3770700000000002,-13.30557 8.82937,-17.135 c5.70183,-4.00469 12.80578,-5.67705 19.67916,-6.0452 a54.085,54.085 0 0 1 36.96936,12.18542 c5.15034,4.27761 9.96041,9.72655 11.78346,16.30818 c1.58324,5.71587 0.2948800000000001,12.19122 -4.30229,16.19444 a10.86752,10.86752 0 0 1 -8.33962,2.5676900000000002 c-3.56706,-0.3703800000000001 -6.85826,-2.246 -9.70719,-4.31737 c-5.54175,-4.02929 -10.09125,-9.64249 -16.84288,-11.74806 c-4.95054,-1.5438900000000002 -11.37484,-0.18492000000000003 -14.40012,4.29192 a8.14859,8.14859 0 0 0 -1.3010000000000002,3.41385 a1.05668,1.05668 0 0 0 0.7126500000000001,1.25515 a1.02669,1.02669 0 0 0 1.25515,-0.7126500000000001 c0.79422,-5.63871 7.72754,-7.7427600000000005 12.59284,-6.45506 c7.09383,1.8775300000000001 11.85586,8.20776 17.67607,12.22959 a21.48,21.48 0 0 0 10.29357,4.1086 a12.78217,12.78217 0 0 0 8.9813,-2.75908 c4.97222,-3.92623 6.87373,-10.67923 5.77424,-16.75919 c-1.27321,-7.04068 -6.01206,-13.075 -11.21157,-17.74674 a56.083,56.083 0 0 0 -38.327,-14.15861 c-7.19249,0.16520000000000004 -14.69716,1.6500000000000001 -20.89346,5.45153 c-6.01038,3.68746 -10.65588,9.85657 -11.26305,17.02754 c-0.53443,6.3118300000000005 2.8520000000000003,12.91368 8.66509,15.67891 a13.57,13.57 0 0 0 4.34814,1.2273800000000001 c1.3026,0.14853000000000002 1.292,-1.89337 0,-2.0407 z" fill="#3f3d56" id="svg_18"/><path d="M878.5,460.99902546875 h-16.06006 v52.32 a17.02411,17.02411 0 0 1 -17,17 H444.5 v7.68 a19.01722,19.01722 0 0 0 19,19 h415 a19.01722,19.01722 0 0 0 19,-19 v-58 A19.01722,19.01722 0 0 0 878.5,460.99902546875 z" fill="#4f668d" id="svg_19" class="" fill-opacity="1"/><path d="M845.43994,436.31903546875003 h-415 a19.01722,19.01722 0 0 0 -19,19 v58 a19.01722,19.01722 0 0 0 19,19 h415 a19.01722,19.01722 0 0 0 19,-19 v-58 A19.01722,19.01722 0 0 0 845.43994,436.31903546875003 zm17,77 a17.02411,17.02411 0 0 1 -17,17 h-415 a17.02411,17.02411 0 0 1 -17,-17 v-58 a17.0241,17.0241 0 0 1 17,-17 h415 a17.0241,17.0241 0 0 1 17,17 z" fill="#3f3d56" id="svg_20"/><path d="M503.27148,452.32177546875005 a32,32 0 1 0 32,32 A32.03667,32.03667 0 0 0 503.27148,452.32177546875005 z" fill="#4f668d" id="svg_21" class="" fill-opacity="1"/><path d="M796.61027,511.32185546874996 h-229 a8,8 0 1 1 0,-16 h229 a8,8 0 0 1 0,16 z" fill="#ff7705" id="svg_22" class="" fill-opacity="1"/><path d="M681.61027,477.32185546874996 h-114 a8,8 0 1 1 0,-16 h114 a8,8 0 0 1 0,16 z" fill="#ff7705" id="svg_23" class="" fill-opacity="1"/><path id="b075a903-93c9-45c1-bbfc-445555d45864" data-name="Path 395" d="M501.10149,498.31382546875 a3.81206,3.81206 0 0 1 -2.29333,-0.7621700000000001 l-0.04100000000000001,-0.030770000000000006 l-8.63785,-6.60768 a3.8386,3.8386 0 0 1 4.671,-6.09274 l5.5949,4.29043 L513.61621,471.86260546874996 a3.837,3.837 0 0 1 5.37963,-0.71058 l0.0011100000000000003,0.0008400000000000003 l-0.08200000000000002,0.11393000000000002 l0.08427000000000003,-0.11393000000000002 a3.84161,3.84161 0 0 1 0.7097500000000001,5.3807 l-15.55086,20.27876 a3.83926,3.83926 0 0 1 -3.0532,1.497 z" fill="#fff"/><path d="M819.5,175.99902546875 h-2.12012 q0.06006000000000001,0.6450000000000001 0.06006000000000001,1.32 v58 a17.02411,17.02411 0 0 1 -17,17 H601.5 v0.6800000000000002 c0,0.44000000000000006 0.020000000000000004,0.8800000000000001 0.04980000000000001,1.32 a19.00416,19.00416 0 0 0 18.9502,17.68 h199 a19.01722,19.01722 0 0 0 19,-19 v-58 A19.01722,19.01722 0 0 0 819.5,175.99902546875 z" fill="#4f668d" id="svg_24" class="" fill-opacity="1"/><path d="M819.39014,175.99902546875 a19.00381,19.00381 0 0 0 -18.9502,-17.68 h-199 a19.01722,19.01722 0 0 0 -19,19 v58 a19.01722,19.01722 0 0 0 19,19 h199 a19.01722,19.01722 0 0 0 19,-19 v-58 C819.43994,176.87902546875 819.41992,176.43902546875 819.39014,175.99902546875 zm-1.9502000000000002,59.32 a17.02411,17.02411 0 0 1 -17,17 h-199 a17.02411,17.02411 0 0 1 -17,-17 v-58 a17.0241,17.0241 0 0 1 17,-17 h199 a17.01629,17.01629 0 0 1 16.93994,15.68 q0.06006000000000001,0.6450000000000001 0.06006000000000001,1.32 z" fill="#3f3d56" id="svg_25"/><path d="M749.941,231.32185546875002 h-98 a8,8 0 1 1 0,-16 h98 a8,8 0 0 1 0,16 z" fill="#ff7705" id="svg_26" class="" fill-opacity="1"/><path d="M719.941,197.32185546875002 h-68 a8,8 0 1 1 0,-16 h68 a8,8 0 0 1 0,16 z" fill="#ff7705" id="svg_27" class="" fill-opacity="1"/></g></svg>